<?xml version="1.0" encoding="utf-8"?>
<!-- Generator: Adobe Illustrator 24.3.0, SVG Export Plug-In . SVG Version: 6.00 Build 0)  -->
<svg version="1.1" id="Layer_4" xmlns="http://www.w3.org/2000/svg" xmlns:xlink="http://www.w3.org/1999/xlink" x="0px" y="0px"
	 viewBox="0 0 190.9 59.9" style="enable-background:new 0 0 190.9 59.9;" xml:space="preserve">
<style type="text/css">
	.st0{opacity:0.85;}
	.st1{fill:#3B4E48;}
	.st2{fill:#3D4D47;}
	.st3{fill:#3B4E47;}
	.st4{fill:#55131E;}
	.st5{fill:#3E4D48;}
	.st6{fill:#3D4E48;}
	.st7{fill:#404E49;}
	.st8{fill:#3F4F4A;}
	.st9{fill:#3E4F49;}
	.st10{fill:#3C4F48;}
	.st11{fill:#3C4E48;}
	.st12{fill:#3F504B;}
	.st13{fill:#3E4E49;}
	.st14{fill:#3F4E49;}
	.st15{fill:#42504B;}
	.st16{fill:#43504C;}
	.st17{fill:#3E504A;}
	.st18{fill:#44524E;}
	.st19{fill:#44534E;}
	.st20{fill:#45534F;}
	.st21{fill:#45504C;}
	.st22{fill:#424F4B;}
	.st23{fill:#47534F;}
	.st24{fill:#656E6A;}
	.st25{fill:#8A6970;}
	.st26{fill:#4D7F71;}
	.st27{fill:#46544F;}
	.st28{fill:#515B57;}
	.st29{fill:#606968;}
	.st30{fill:#646D6A;}
	.st31{fill:#979998;}
	.st32{fill:#475551;}
	.st33{fill:#44524D;}
	.st34{fill:#40514B;}
	.st35{fill:#43514C;}
	.st36{fill:#515A57;}
	.st37{fill:#555C5A;}
	.st38{fill:#515755;}
	.st39{fill:#5A6562;}
	.st40{fill:#636967;}
	.st41{fill:#475451;}
	.st42{fill:#666D6B;}
	.st43{fill:#494D4C;}
	.st44{fill:#59635F;}
	.st45{fill:#505855;}
	.st46{fill:#42504C;}
	.st47{fill:#626D6A;}
	.st48{fill:#545956;}
	.st49{fill:#344945;}
	.st50{fill:#354945;}
	.st51{fill:#344A45;}
	.st52{fill:#364845;}
	.st53{fill:#344A46;}
	.st54{fill:#364A46;}
	.st55{fill:#394A46;}
	.st56{fill:#374B48;}
	.st57{fill:#374B47;}
	.st58{fill:#354B46;}
	.st59{fill:#384C48;}
	.st60{fill:#374A47;}
	.st61{fill:#394B48;}
	.st62{fill:#3A4C48;}
	.st63{fill:#3D4C49;}
	.st64{fill:#374C48;}
	.st65{fill:#3C4D4A;}
	.st66{fill:#3C4F4B;}
	.st67{fill:#3E4F4B;}
	.st68{fill:#3E4B48;}
	.st69{fill:#3B4B48;}
	.st70{fill:#404F4C;}
	.st71{fill:#5B6765;}
	.st72{fill:url(#SVGID_1_);}
	.st73{fill:#40504C;}
	.st74{fill:#485553;}
	.st75{fill:#596563;}
	.st76{fill:#5A6664;}
	.st77{fill:#889090;}
	.st78{fill:#3F514D;}
	.st79{fill:#3D4E4A;}
	.st80{fill:#394D49;}
	.st81{fill:#3C4C49;}
	.st82{fill:#495554;}
	.st83{fill:#4E5756;}
	.st84{fill:#4A5352;}
	.st85{fill:#525F5C;}
	.st86{fill:#5A6362;}
	.st87{fill:#40504D;}
	.st88{fill:#5E6767;}
	.st89{fill:#434849;}
	.st90{fill:#505B59;}
	.st91{fill:#485452;}
	.st92{fill:#3B4C49;}
	.st93{fill:#596864;}
	.st94{fill:#4F001A;}
	.st95{fill:#354945;stroke:#354945;stroke-width:0.75;stroke-miterlimit:10;}
</style>
<g>
	<g class="st0">
		<path class="st1" d="M154.3,42C154.3,42,154.3,42,154.3,42c0.2-0.1,0.4-0.3,0.5-0.4l0,0c0.1-0.1,0.1-0.2,0.3-0.2
			c0.1,0,0.2-0.1,0.3-0.2c0.2-0.2,0.4-0.4,0.6-0.6c0.1-0.1,0.1-0.1,0.2-0.2c0,0,0,0,0.1-0.1c0.1-0.1,0.2-0.2,0.3-0.3
			c0.2-0.3,0.5-0.5,0.7-0.8c0.1-0.1,0.2-0.2,0.3-0.1c0.1,0,0.1,0,0.2,0.1c0.2,0,0.2,0.1,0.1,0.2c-0.1,0.2-0.3,0.4-0.5,0.6
			c-0.2,0.3-0.4,0.5-0.7,0.7c-0.2,0.2-0.4,0.4-0.7,0.6l0,0c-0.1,0.1-0.2,0.2-0.3,0.3c-0.2,0.1-0.4,0.3-0.6,0.4
			c-0.1,0.1-0.2,0.2-0.4,0.3l0,0c-0.2,0.2-0.4,0.3-0.6,0.4c-0.1,0.1-0.2,0.2-0.3,0.2c-0.1,0-0.1,0-0.2,0.1c-0.2,0.2-0.5,0.2-0.7,0.3
			c-0.3,0.1-0.7,0.3-1,0.4l0,0c-0.4,0.2-0.9,0.3-1.3,0.4c-0.5,0.1-1,0.1-1.5,0.2c-0.4,0-0.7,0-1.1,0c-0.2,0-0.5,0-0.7-0.1
			c-0.1-0.1-0.2,0-0.3,0c-0.3,0-0.6-0.1-0.9-0.2c-0.3,0-0.5-0.1-0.8-0.2c-0.3,0-0.5-0.2-0.8-0.2c-0.6-0.2-1.2-0.5-1.8-0.8
			c-0.2-0.1-0.3-0.2-0.5-0.3c-0.1-0.1-0.3-0.2-0.4-0.3c-0.3-0.1-0.5-0.3-0.7-0.5l0,0c-0.4-0.2-0.7-0.6-1-0.9l0,0
			c-0.2-0.2-0.4-0.4-0.6-0.6c-0.4-0.3-0.6-0.8-0.9-1.1c-0.1-0.1-0.2-0.3-0.2-0.4l0,0c0,0-0.1-0.1-0.1-0.1c-0.1-0.2-0.1-0.2,0.1-0.2
			c0.3-0.1,0.5,0.1,0.6,0.3c0,0.1,0.1,0.1,0.1,0.2c0.1,0.1,0.2,0.2,0.2,0.3c0,0,0.1,0.1,0.1,0.1c0.1,0,0.1,0.1,0.1,0.1
			c0.3,0.5,0.7,0.9,1.2,1.2c0.1,0.1,0.3,0.3,0.4,0.4c0.1,0.2,0.3,0.3,0.4,0.4c0.1,0.1,0.3,0.2,0.4,0.2c0.3,0.2,0.7,0.4,1,0.6l0,0
			c0.2,0.1,0.4,0.2,0.6,0.3c0.2,0.1,0.5,0.2,0.8,0.4c0.1,0,0.2,0,0.2,0.1l0,0c0.4,0.1,0.7,0.2,1.1,0.4c0.4,0.1,0.9,0.2,1.3,0.2
			c0.6,0.1,1.2,0.2,1.8,0.1c0.1,0,0.3,0,0.4,0c0.2,0,0.5-0.1,0.7-0.1c0.3,0,0.7-0.1,1-0.1c0,0,0.1,0,0.1-0.1c0,0,0.1,0,0.1,0
			c0.3,0,0.6-0.1,0.8-0.2c0.3-0.1,0.5-0.2,0.8-0.3c0.2-0.1,0.4-0.2,0.6-0.2l0,0C153.4,42.5,153.8,42.3,154.3,42z"/>
		<path class="st2" d="M144.3,49.3C144.4,49.3,144.4,49.3,144.3,49.3c0.1,0.1,0.1,0.1,0.2,0.1c0.1-0.1,0.2-0.1,0.3-0.2
			c0,0,0,0,0.1,0c0,0,0.1,0,0.1-0.1c0,0,0,0,0,0c0.1,0,0.1,0,0.1,0l0,0c0,0,0.1,0.1,0.1,0.1c0.1,0.3,0.1,0.3,0.4,0.1
			c0-0.1,0.1-0.2,0.1-0.2c0,0,0,0,0,0c0-0.1,0.1-0.1,0.1-0.1c0,0,0,0,0-0.1c0,0,0.1-0.1,0.1-0.1c0,0,0,0,0,0
			c0.1-0.1,0.1-0.2,0.3-0.3l0,0c0-0.1,0.1-0.1,0.2-0.1l0,0l0,0c0-0.1,0.1-0.1,0.2-0.1c0.3-0.2,0.7-0.3,1,0c0.2,0.2,0.3,0.4,0.4,0.6
			c0,0.1-0.1,0.3-0.2,0.3c-0.1,0-0.1-0.1-0.2-0.2c-0.3-0.5-0.7-0.6-1.2-0.2c-0.3,0.2-0.5,0.4-0.7,0.7c-0.1,0.1,0,0.1,0,0.1
			c0.2,0.1,0.5,0.1,0.7,0c0.2-0.1,0.5-0.1,0.7-0.2c0.1-0.1,0.2-0.1,0.3-0.2c0.1,0,0.1-0.1,0.2,0c0,0.1,0.1,0.1,0,0.2
			c0,0,0,0.1,0,0.1c0,0,0.1,0,0.2,0c0.1-0.1,0.3-0.1,0.4-0.2c0,0,0.1-0.1,0.1,0c0,0,0,0.1,0,0.1c-0.1,0.2-0.3,0.3-0.4,0.4
			c-0.1,0.1-0.3,0.1-0.5,0.2c-0.2,0.2-0.5,0.2-0.7,0.1c-0.2,0-0.4,0-0.6,0c-0.3,0.1-0.6,0-0.9-0.2c-0.2-0.1-0.3-0.3-0.3-0.5
			c0-0.1-0.1-0.1-0.1-0.1c-0.2,0.1-0.4,0.2-0.6,0.4c-0.1,0.1,0,0.2-0.1,0.3c-0.1,0,0-0.1-0.1-0.2c0-0.1,0-0.2-0.2-0.1
			c-0.2,0.1-0.4,0.1-0.6,0c-0.1,0-0.1-0.1-0.1-0.1c0,0,0-0.1-0.1-0.1c-0.1-0.2,0-0.4,0.1-0.5c0,0,0.1-0.1,0.1-0.1
			c0-0.1,0.1-0.2,0.2-0.2c0,0,0.1,0,0.1,0c0.1,0,0.2,0.1,0.2,0.2c0,0.1,0.1,0,0.1,0.1C144.3,49.1,144.3,49.2,144.3,49.3z"/>
		<path class="st2" d="M156.8,50.1c0.1,0.1,0,0.3,0.1,0.4c0.2,0.4,0.6,0.6,1,0.3c0.1-0.1,0.2-0.2,0.3-0.3c0.2-0.2,0.2-0.3,0.1-0.6
			c-0.1-0.1-0.1-0.3-0.1-0.4c0-0.4-0.1-0.8-0.1-1.1c0-0.3-0.1-0.7-0.2-1c0-0.4-0.1-0.7-0.1-1.1c0-0.2-0.1-0.3-0.1-0.5
			c0-0.1,0-0.2,0.1-0.4c0-0.1,0-0.2,0.1-0.2l0,0c0.1-0.1,0.2,0,0.3,0.1c0,0,0,0,0,0c0.2,0.1,0.4,0.3,0.5,0.5c0,0,0,0,0,0
			c0.2,0.2,0.4,0.4,0.5,0.7c0,0.1,0.1,0.2,0.2,0.3c0,0.1,0.1,0.2,0.1,0.3c0.1,0.2,0.1,0.4,0.1,0.6c0,0.1,0,0.1,0,0.2
			c0,0.1,0,0.1,0,0.2c0,0,0,0.1,0,0.1c0,0.2,0,0.4-0.1,0.6c0,0,0,0,0,0c0,0,0,0,0,0c0,0,0,0,0,0c0,0-0.1,0-0.1,0c0-0.1,0-0.2,0-0.3
			c0-0.2,0-0.5,0-0.7l0,0c-0.1-0.1,0-0.3-0.1-0.5c0-0.1-0.1-0.1-0.1-0.3c-0.2-0.3-0.4-0.6-0.6-0.9l0,0c-0.2-0.1-0.4-0.3-0.6-0.5
			c0,0.3,0.1,0.5,0.1,0.8l0,0c0,0.2,0,0.4,0.1,0.6c0,0,0,0,0,0c0,0.1,0,0.1,0,0.2c0,0,0,0.1,0,0.1c0,0,0,0,0,0
			c0,0.3,0.1,0.6,0.1,0.9c0,0,0,0,0,0c0,0,0,0,0,0c0,0,0,0,0,0c0.1,0.2,0.1,0.4,0,0.6c0,0,0,0,0,0c0,0,0.1,0,0.1,0.1
			c0,0,0,0.1,0,0.1c0,0.1,0,0.3,0.1,0.4c0,0.1,0,0.1,0.1,0.2c0,0,0,0.1,0,0.1c0.1,0.1,0.2,0,0.3,0c0.1,0,0.2,0,0.3,0
			c0.2,0.1,0.4,0.4,0.3,0.7c0,0,0,0.1,0,0.1c0,0,0,0,0,0.1c0,0.2-0.1,0.2-0.3,0.2c-0.2,0-0.4-0.1-0.5-0.3c0,0,0-0.1,0-0.1
			c0,0-0.1-0.1-0.1-0.1c0,0-0.1,0-0.1,0c-0.1,0.1-0.2,0.2-0.3,0.2c0,0-0.1,0.1-0.1,0.1c-0.1,0.1-0.1,0.2-0.3,0.2c0,0-0.1,0-0.1,0
			c0,0,0,0,0,0l0,0c-0.1,0.1-0.1,0.1-0.2,0.1c0,0,0,0,0,0c0,0-0.1,0-0.1,0c-0.1,0-0.2-0.1-0.3-0.2c0-0.1-0.1-0.2-0.1-0.3l0,0
			c0,0,0-0.1,0-0.1c0-0.2,0-0.3,0-0.5c0-0.1,0-0.1,0-0.2C156.7,50,156.8,50.1,156.8,50.1z"/>
		<path class="st2" d="M151.7,46.7c0,0,0.1,0,0.1-0.1c0.2-0.1,0.4-0.2,0.6-0.2c0,0,0,0,0,0c0.1-0.1,0.1,0,0.2-0.1l0,0l0,0
			c0,0,0.1,0,0.1,0c0,0,0.1,0,0.1,0c0.1,0,0.1,0,0.2-0.1l0,0l0,0c0.1-0.1,0.1-0.1,0.2-0.1c0.1,0,0.1,0,0.2-0.1c0.1,0,0.2,0,0.3,0
			c0.1,0,0.2-0.1,0.3-0.1c0.1-0.1,0.2-0.1,0.3-0.1c0.1,0,0.2,0,0.3-0.1c0,0,0,0,0.1,0c0.1,0,0.2-0.1,0.3-0.1c0,0,0,0,0.1,0
			c0,0,0.1,0,0.1,0c0,0,0,0,0.1,0c0.1,0,0.1-0.1,0.2,0c0,0,0,0,0,0c0.1-0.1,0.3-0.1,0.5-0.1c0.1-0.1,0.2-0.1,0.4-0.1c0,0,0,0,0.1,0
			c0.1,0,0.1-0.1,0.2-0.1c0,0,0.1,0,0.1,0c0,0,0.1,0,0.1,0c0.1-0.1,0.2-0.1,0.3-0.1c0-0.1,0.1,0,0.2,0c0,0,0,0,0,0c0,0,0,0,0,0
			c-0.1,0.2-0.3,0.3-0.4,0.3c-0.2,0-0.4,0.1-0.6,0.2c-0.2,0.1-0.4,0.1-0.6,0.2c-0.4,0.2-0.9,0.2-1.3,0.4c-0.2,0.1-0.4,0.1-0.6,0.2
			c-0.3,0.1-0.7,0.2-1,0.3c-0.2,0.1-0.3,0.1-0.5,0.2c-0.2,0.1-0.4,0.1-0.6,0.2c-0.2,0.1-0.5,0.2-0.7,0.3c-0.1-0.1,0.1-0.1,0.1-0.1
			c0.1-0.1,0.2-0.2,0.3-0.3C151.3,46.8,151.5,46.8,151.7,46.7z"/>
		<path class="st2" d="M148.4,44.7c0.3,0.3,0.6,0.6,0.8,0.9c0.2,0.3,0.4,0.6,0.4,1c0.1,0.3,0.2,0.6,0.1,0.8c-0.1,0.2,0,0.4-0.1,0.7
			c-0.1,0-0.1-0.1-0.1-0.1c0-0.2,0-0.4,0-0.6c0-0.5-0.2-0.9-0.4-1.3c-0.2-0.3-0.4-0.5-0.6-0.7c0,0,0,0,0,0c-0.1,0-0.1-0.2-0.2-0.1
			c-0.1,0.1,0,0.2,0,0.2c0,0.3,0.1,0.7,0.2,1c0.1,0.3,0.1,0.7,0.2,1c0.1,0.3,0.1,0.6,0.1,0.9c0,0.2,0,0.4,0,0.5c-0.1,0-0.1,0-0.1,0
			c0-0.2,0-0.5-0.1-0.7c-0.1-0.4-0.1-0.8-0.2-1.2c0-0.1,0-0.2,0-0.4c0-0.3-0.1-0.6-0.2-0.9c0-0.3-0.1-0.5,0-0.7c0,0,0-0.1,0-0.1
			c0,0,0,0,0,0C148.3,44.9,148.2,44.8,148.4,44.7C148.4,44.7,148.4,44.7,148.4,44.7z"/>
		<path class="st2" d="M152.3,50.4c-0.1-0.1-0.2-0.2-0.2-0.5c0-0.1-0.1-0.1-0.1,0c-0.1,0.2-0.3,0.3-0.4,0.5
			c-0.2,0.2-0.4,0.3-0.7,0.3c-0.3,0-0.5-0.2-0.7-0.5c-0.1-0.2-0.2-0.2-0.3-0.1c-0.2,0.2-0.4,0.4-0.5,0.6c-0.1-0.2,0-0.3,0.1-0.4
			c0.2-0.3,0.4-0.5,0.7-0.7c0.1,0,0.1,0,0.2,0c0.2,0.4,0.7,0.7,1.1,0.5c0.3-0.1,0.5-0.3,0.7-0.6c0.1-0.1,0.1-0.1,0.2-0.2
			c0,0,0,0.1,0,0.1c0,0.3,0.3,0.5,0.6,0.3c0.1,0,0.2,0,0.2-0.1c0.1,0,0,0.1,0.1,0.1c-0.1,0.3-0.3,0.4-0.5,0.5
			C152.4,50.5,152.4,50.3,152.3,50.4C152.3,50.4,152.3,50.4,152.3,50.4z"/>
		<path class="st2" d="M137.7,50.5c0,0,0-0.1,0-0.1c0.2-0.4,0.4-0.7,0.8-1c0.2-0.1,0.3-0.1,0.4,0.1c0.3,0.5,0.6,0.6,1,0.5
			c0.1,0,0.2-0.1,0.3-0.2c0.1-0.1,0.1-0.1,0.2-0.2c0.2-0.2,0.2-0.2,0.3,0.1c0.1,0.2,0.3,0.3,0.6,0.2c0,0,0.1,0,0.1-0.1
			c0,0,0.1,0,0,0c-0.1,0.2-0.1,0.4-0.3,0.5c-0.2,0.1-0.5,0-0.5-0.3c0-0.1,0-0.1-0.1-0.2c0,0-0.1,0-0.1,0c0,0.1-0.1,0.1-0.2,0.2
			c-0.4,0.5-0.7,0.4-1.1,0.1c-0.1-0.1-0.2-0.3-0.3-0.4c-0.1-0.2-0.2-0.2-0.4-0.1C138.1,49.9,137.9,50.2,137.7,50.5
			C137.7,50.5,137.7,50.5,137.7,50.5z"/>
		<path class="st3" d="M141.4,51.2c0-0.1,0-0.3,0-0.4c0.1,0,0.1,0,0.1,0.1c0.1,0.4,0.6,0.6,0.9,0.5c0.4-0.1,0.7-0.3,1.1-0.5
			c0.2-0.1,0.4-0.3,0.6-0.4c0,0,0.1-0.1,0.1-0.1c0.1,0,0.1-0.1,0.2,0c0.1,0.1,0,0.1-0.1,0.1c-0.1,0.1-0.1,0.2-0.2,0.3
			c-0.2,0.2-0.4,0.4-0.7,0.5c-0.1,0-0.1,0.1-0.2,0.1c-0.1,0.2-0.4,0.2-0.6,0.3l0,0c-0.2,0.1-0.4,0.3-0.7,0.1c0,0-0.1,0-0.1,0
			c-0.1,0-0.2,0-0.3-0.2c0,0,0,0-0.1-0.1C141.5,51.5,141.4,51.4,141.4,51.2z"/>
		<path class="st4" d="M149.5,43.3C149.4,43.3,149.4,43.3,149.5,43.3c-0.1,0.2-0.2,0.2-0.2,0.3c0,0,0,0-0.1,0c0,0-0.1-0.1-0.1-0.2
			c0,0,0,0,0,0c0,0,0,0,0-0.1c-0.1-0.2-0.2-0.3-0.4-0.3c-0.2,0-0.3-0.4-0.2-0.7c0,0,0-0.1,0-0.1c0-0.2,0.1-0.3,0.2-0.4
			c0,0,0,0,0.1-0.1c0,0,0.1,0,0.1,0c0,0,0,0,0.1,0c0,0,0.1,0,0.1,0l0,0c0,0,0.1,0,0.1,0.1c0,0,0,0,0,0c0.1,0.1,0.1,0.1,0.1,0.2
			c0,0,0,0,0,0c0.1,0.3,0.2,0.5,0.2,0.8l0,0C149.5,43.1,149.6,43.2,149.5,43.3z"/>
		<path class="st5" d="M147.7,45.2c-0.1,0.3-0.3,0.4-0.6,0.4c-0.3,0.1-0.5,0.2-0.8,0.2c-0.3,0.1-0.5,0.2-0.8,0.3c0,0,0,0-0.1,0
			c0,0,0,0,0,0c-0.1,0.1-0.2,0.1-0.3,0.2c-0.3,0.1-0.6,0.2-0.9,0.4c-0.2,0.1-0.4,0.2-0.6,0.2l0,0c-0.1,0.1-0.2,0.1-0.2-0.1
			c0,0,0,0,0,0c0-0.1,0.1-0.1,0.1-0.1c0,0,0,0,0-0.1c0.1-0.1,0.2-0.1,0.3-0.2l0,0c0.1-0.1,0.2,0,0.3-0.1c0,0,0.1,0,0.1,0
			c0.1-0.1,0.3-0.2,0.5-0.2c0.1-0.1,0.3-0.1,0.4-0.2c0.1-0.2,0.3-0.1,0.4-0.2c0,0,0.1,0,0.1,0c0.1,0,0.1,0,0.2-0.1
			c0.1-0.1,0.3,0,0.4-0.1c0.1,0,0.1,0,0.2,0c0,0,0,0,0.1,0c0.2,0,0.3-0.1,0.5-0.1c0.1,0,0.1,0,0.2,0c0-0.1,0.1-0.1,0.2,0
			c0,0,0,0,0.1-0.1c0,0,0,0,0,0C147.5,45.2,147.6,45.2,147.7,45.2z"/>
		<path class="st2" d="M152.4,50.8c0,0,0.1,0,0.1,0c0,0.3,0.2,0.3,0.4,0.3c0.4,0.1,0.7-0.2,1-0.4c0.4-0.3,0.8-0.6,1.1-0.9
			c0,0,0.1,0,0.1,0c0,0,0,0.1,0,0.1c-0.1,0.4-0.4,0.5-0.6,0.7c-0.1,0.1-0.2,0.2-0.4,0.3c-0.1,0.2-0.3,0.3-0.5,0.4
			c-0.1,0-0.1,0.1-0.1,0.1c-0.1,0.1-0.3,0.2-0.5,0.2c-0.1,0-0.2,0-0.3,0c-0.1,0-0.2,0.1-0.2-0.1c0,0,0-0.1,0-0.1
			c0,0-0.1-0.1-0.1-0.1C152.4,51.1,152.4,50.9,152.4,50.8z"/>
		<path class="st2" d="M141.9,44.7c0-0.1,0.1-0.1,0.1,0c0,0.1,0.1,0.1,0.1,0.2c0.1,0,0,0.1,0.1,0.1c0.2,0.1,0.2,0.4,0.3,0.5
			c0,0,0,0.1,0,0.1c-0.2,0.1-0.1,0.3-0.1,0.5c0.1,0.3,0.1,0.6,0.1,1c0,0.2,0.1,0.4,0.1,0.7c0.1,0,0.1,0.1,0.1,0.2c0,0.1,0,0.2,0,0.3
			c0,0,0,0.1,0,0.1c0.1,0.2,0.1,0.4,0.1,0.6c0,0.1,0.1,0.2,0,0.4c0,0.1,0,0.1-0.1,0.1c-0.1,0-0.1-0.1-0.1-0.1
			c-0.1-0.3-0.1-0.6-0.2-1c-0.1-0.3-0.1-0.7-0.2-1c-0.1-0.3-0.1-0.6-0.2-0.9c-0.1-0.2-0.1-0.5-0.1-0.7c0-0.2-0.1-0.4-0.1-0.5
			C141.9,45,141.8,44.8,141.9,44.7z"/>
		<path class="st4" d="M147.2,43.2C147.2,43.1,147.2,43.1,147.2,43.2c-0.1-0.2-0.2-0.4-0.2-0.5c-0.1-0.2-0.2-0.3-0.1-0.5
			c0-0.1,0-0.2,0.1-0.2l0,0c0-0.1,0.1-0.2,0.2-0.2c0,0,0,0,0,0c0.1,0,0.3,0,0.4,0c0.1,0,0.2,0,0.2,0.1c0,0,0,0,0,0.1
			c0,0.1,0,0.2-0.1,0.3c0,0-0.1,0.1,0,0.1c0,0-0.1,0-0.1,0c-0.2,0.1-0.2,0.1-0.2,0.3c0,0,0,0,0,0.1c0.1,0.1,0.1,0.2,0.1,0.4l0,0
			c0,0.2,0.1,0.4-0.2,0.6c0,0,0,0,0,0C147.3,43.5,147.3,43.3,147.2,43.2z"/>
		<path class="st1" d="M156.8,50.1c0,0-0.1,0-0.1,0c-0.1,0.1-0.1,0.1-0.2,0.1c-0.1,0.1-0.1,0.2-0.2,0.3c0,0,0,0.1-0.1,0.1l0,0
			c-0.1,0.1-0.2,0.3-0.3,0.3c0,0,0,0.1-0.1,0.1c-0.1,0.1-0.2,0.2-0.3,0.2c-0.1,0-0.1,0-0.2,0.1c-0.1,0.1-0.2,0.2-0.3,0.2
			c0,0,0,0,0,0c-0.1,0-0.1,0-0.2,0.1l0,0c-0.1,0.1-0.2,0.1-0.4,0.1c0,0,0,0-0.1,0c0,0-0.1,0-0.1-0.1c-0.2-0.2-0.1-0.4-0.1-0.7
			c0,0,0.1,0,0.1,0c0,0.1,0.1,0.2,0.2,0.2c0.2,0,0.3,0,0.5-0.1c0.4-0.2,0.8-0.5,1.2-0.9c0.1-0.1,0.2-0.2,0.3-0.3
			c0.1-0.1,0.2-0.3,0.1-0.4c0-0.1-0.1-0.2,0.1-0.2C156.8,49.6,156.8,49.9,156.8,50.1z"/>
		<path class="st4" d="M146,42.5C146,42.5,146,42.5,146,42.5c0,0.3,0.1,0.5,0,0.7c0,0.1,0,0.2-0.1,0.2c0,0,0,0.1,0,0.2
			c0,0,0,0.1,0,0.1c0,0-0.1,0-0.1,0c0-0.1,0-0.1,0-0.2c0-0.1-0.1-0.2-0.1-0.3c0,0,0-0.1,0-0.1c-0.1-0.1,0-0.2-0.1-0.2
			c0-0.1-0.1-0.2-0.1-0.3l0,0c0-0.1-0.1-0.2-0.1-0.3l0,0c0-0.1,0.1-0.2,0.1-0.2c0-0.1,0-0.1,0.1-0.1c0.1,0,0.1,0,0.1,0.1
			C145.9,42,146.1,42.2,146,42.5z"/>
		<path class="st4" d="M150.8,42.3c0,0.1,0,0.1,0,0.2c0.1,0.1,0.1,0.2,0,0.2c0,0.1,0,0.3,0,0.4c0,0.1,0,0.2,0,0.3l0,0
			c0,0,0,0.1,0,0.1c0,0-0.1,0.1-0.1,0c-0.1-0.1,0-0.3-0.1-0.4l0,0c-0.1-0.2-0.2-0.3-0.2-0.5c0,0,0,0,0,0c-0.1-0.1-0.1-0.2-0.2-0.3
			c-0.1-0.2,0-0.3,0.2-0.4c0,0,0,0,0,0c0-0.1,0-0.1,0.1-0.1c0,0,0.1,0,0.1,0c0.1,0.1,0.2,0.2,0.2,0.4l0,0
			C150.8,42.2,150.8,42.2,150.8,42.3z"/>
		<path class="st6" d="M141.4,49.9C141.3,49.9,141.3,49.9,141.4,49.9c0-0.2,0.1-0.3,0.2-0.4c0-0.1,0.1-0.2,0.2,0
			c0.1,0.2,0.2,0.3,0.4,0.3c0.1,0,0.2-0.1,0.4-0.1c0.1,0,0.2-0.1,0.2-0.1c0,0.5-0.6,0.8-0.9,0.5c-0.1-0.1-0.1-0.1-0.1-0.2
			c0-0.1,0.1-0.2,0-0.2C141.5,49.7,141.4,49.8,141.4,49.9C141.4,49.9,141.4,49.9,141.4,49.9z"/>
		<path class="st7" d="M139.6,45.9C139.6,45.9,139.7,45.9,139.6,45.9c0.2-0.1,0.3-0.2,0.5-0.2c0.1,0,0.1-0.1,0.2-0.1
			c0.1-0.1,0.2-0.1,0.3-0.1l0,0c0.1,0,0.2,0,0.2-0.1c0.1,0,0.3-0.1,0.4-0.1c0,0,0.1-0.1,0.1-0.1c0,0,0.1,0,0.1,0c0,0,0,0.1,0,0.1
			c-0.2,0.1-0.4,0.2-0.6,0.3c-0.6,0.3-1.2,0.4-1.8,0.7c-0.1,0-0.1,0-0.2,0.1c-0.1,0-0.1,0-0.1,0c0.1-0.2,0.2-0.3,0.4-0.3
			c0.1-0.1,0.2-0.1,0.3-0.1c0.1,0,0.1-0.1,0.1-0.1C139.5,45.9,139.6,45.9,139.6,45.9z"/>
		<path class="st8" d="M136.3,48.7c0,0,0-0.1,0-0.1c0-0.1,0-0.1,0-0.2c0-0.1,0-0.1,0-0.2c0,0,0-0.1,0.1-0.1c0,0,0,0.1,0,0.1
			c0,0.2-0.1,0.4,0.1,0.6c0.1,0,0.1,0.1,0.2,0.2c0,0,0,0,0,0c0.1,0.1,0.2,0.1,0.2,0c0.1,0,0.1-0.1,0.1-0.1c0.2,0.1,0,0.1,0,0.2
			c0,0.2-0.1,0.3-0.2,0.3c-0.2,0-0.2,0.1-0.1,0.3c0,0.1,0,0.2-0.1,0.2c0,0,0,0,0,0c-0.1-0.2,0-0.4-0.2-0.6c0-0.1-0.1-0.1-0.1-0.2
			C136.2,48.9,136.2,48.8,136.3,48.7z"/>
		<path class="st9" d="M137.7,50.5C137.7,50.5,137.7,50.5,137.7,50.5c0,0,0,0.1,0,0.1c0,0.3-0.2,0.5-0.3,0.7
			c-0.1,0.1-0.2,0.2-0.3,0.1c0,0-0.1,0-0.1-0.1c-0.1,0-0.1-0.1-0.2-0.2c0-0.1-0.1,0-0.1-0.1c-0.1-0.2-0.2-0.4-0.2-0.7
			c0-0.1,0-0.1,0-0.2c0-0.1,0-0.1,0.1-0.1c0,0.2,0.1,0.4,0.1,0.6c0,0.1,0.1,0.2,0.3,0.3c0.2,0,0.3-0.1,0.4-0.2
			C137.6,50.6,137.6,50.5,137.7,50.5z"/>
		<path class="st6" d="M138.7,51.3c0-0.1,0.1-0.2,0.2-0.1c0.2,0.1,0.3,0.1,0.4-0.1c0,0,0.1-0.1,0.1,0c0,0,0.1,0.1,0.2,0.1
			c0,0,0,0,0,0c0,0,0.1,0.1,0.1,0.1c0,0.2-0.1,0.2-0.2,0.3l0,0c-0.1,0-0.2,0-0.3-0.1c0,0,0,0,0,0c-0.1,0-0.2,0.2-0.3,0.2
			c-0.1,0-0.1,0-0.2,0c-0.1,0-0.1-0.1-0.2-0.1c-0.1,0,0-0.1,0-0.1C138.6,51.3,138.6,51.3,138.7,51.3z"/>
		<path class="st10" d="M149.2,50.8c0,0.3-0.1,0.5-0.2,0.7c-0.3,0.2-0.5,0.2-0.6-0.2c0-0.1-0.1-0.1-0.1-0.2l0,0
			c-0.1-0.1-0.1-0.2-0.1-0.3c0-0.1,0-0.1,0-0.2c0,0,0,0,0-0.1c0,0,0,0,0,0c0.1,0.1,0.1,0.3,0.2,0.4c0.2,0.2,0.4,0.2,0.6,0
			C149,50.9,149.1,50.8,149.2,50.8z"/>
		<path class="st11" d="M141.8,48c0,0.1-0.2,0.3-0.4,0.2c-0.3-0.1-0.2-0.1-0.5,0.1c-0.1,0.1-0.2,0-0.2,0c-0.1,0-0.2-0.1-0.1-0.3
			c0.1-0.2,0.2-0.2,0.3-0.1c0,0,0.1,0.1,0.1,0.1c0.1,0,0.2,0.1,0.2-0.1c0-0.1,0.1-0.2,0.3-0.1C141.6,47.9,141.7,47.9,141.8,48
			C141.8,47.9,141.8,48,141.8,48z"/>
		<path class="st12" d="M143.2,45.4c0-0.3,0.1-0.4,0.3-0.4c0.1,0,0.1,0,0.2,0.1c0,0,0,0,0,0c0.1,0,0.1,0.1,0.2,0.2
			c0.1,0.1,0.1,0.2,0.2,0.3c0.1,0.1,0.1,0.2,0,0.3c0,0.1-0.1,0.1-0.2,0.1c0,0,0-0.1,0-0.1c-0.1,0,0-0.1-0.1-0.2c0,0,0,0,0,0
			c-0.1-0.1-0.2-0.3-0.4-0.2C143.4,45.6,143.3,45.5,143.2,45.4z"/>
		<path class="st13" d="M137.5,45.6c0-0.1,0-0.2,0-0.3c0.1-0.2,0.1-0.2,0.2-0.1c0,0,0.1,0.1,0.1,0.1c0,0,0,0.1,0.1,0.1c0,0,0,0,0,0
			c0.1,0,0.1,0.1,0.1,0.2l0,0c0,0.1,0.1,0.2,0.1,0.3c0,0.1,0,0.1-0.1,0.1c-0.1,0-0.1-0.1-0.1-0.1c0,0,0,0,0-0.1
			c-0.1-0.1-0.1-0.2-0.2-0.2C137.7,45.8,137.6,45.7,137.5,45.6z"/>
		<path class="st9" d="M138.5,47.6c0.1,0,0.1-0.1,0.1-0.2c0,0,0-0.1,0.1-0.1c0.1,0,0.1,0.1,0.2,0.1c0.1,0.1,0.2,0.2,0.1,0.3
			c-0.1,0.1-0.2,0.2-0.3,0c0,0-0.1-0.1-0.2-0.1C138.4,47.7,138.5,47.7,138.5,47.6z"/>
		<path class="st9" d="M137.9,47.6c0,0,0-0.1,0.1-0.1c0.1,0,0.2,0.1,0.3,0.2c0,0.1,0,0,0.1,0c0.2,0.1,0,0.2,0,0.3
			c-0.1,0.1-0.1,0.1-0.2,0.1c-0.1,0-0.2-0.1-0.3-0.1C137.7,47.8,137.9,47.7,137.9,47.6z"/>
		<path class="st4" d="M138.4,22.2c-0.1,0.2-0.3,0.5-0.4,0.7c-0.1,0.2-0.2,0.3-0.4,0.2c-0.1,0-0.2,0-0.2,0c0-0.1,0.1-0.2,0.1-0.3
			c0-0.1,0.1-0.2,0.1-0.2c0-0.1,0.1-0.2,0.2-0.2c0.1-0.3,0.4-0.6,0.6-0.9c0.4-0.6,0.9-1.2,1.5-1.7c0.1-0.1,0.2-0.2,0.3-0.3
			c0.4-0.4,0.8-0.7,1.2-1c0,0,0.1,0,0.2-0.1c0.6-0.4,1.1-0.7,1.8-1c0.5-0.2,1-0.4,1.4-0.6c0.3-0.1,0.7-0.2,1-0.3
			c1.2-0.2,2.4-0.3,3.6-0.2c0.7,0.1,1.4,0.2,2,0.4c0.6,0.2,1.2,0.4,1.8,0.7c0.1,0,0.1,0,0.2,0.1c0.1,0.1,0.3,0.1,0.4,0.2
			c0.8,0.5,1.6,1,2.3,1.6c0.7,0.6,1.3,1.2,1.8,1.9c0.2,0.2,0.3,0.4,0.5,0.7c0,0,0.1,0.1,0,0.1c0,0-0.1,0-0.1,0c-0.3,0-0.5,0-0.7-0.4
			c-0.1-0.3-0.4-0.5-0.6-0.7c0-0.1-0.1-0.1-0.1-0.1l0,0c-0.1-0.2-0.3-0.3-0.5-0.5c-0.2-0.2-0.3-0.3-0.5-0.5
			c-0.2-0.1-0.3-0.3-0.5-0.4c-0.6-0.5-1.2-0.9-1.8-1.2c-0.6-0.3-1.2-0.6-1.8-0.8c-0.2-0.1-0.5-0.2-0.7-0.2c-1.3-0.3-2.5-0.4-3.8-0.3
			c-0.9,0.1-1.9,0.3-2.8,0.6c-0.4,0.1-0.7,0.3-1.1,0.4c-0.1,0-0.2,0.1-0.3,0.1c-0.5,0.3-1,0.5-1.4,0.9c-0.7,0.5-1.4,1.1-1.9,1.7
			c-0.4,0.4-0.8,0.9-1.1,1.4C138.5,22.1,138.4,22.2,138.4,22.2z"/>
		<path class="st1" d="M149.1,21.4c-0.1-0.1-0.3-0.1-0.4-0.2c-0.1,0-0.1-0.1-0.1-0.2c0.3-0.6,0.6-1.3,1-1.9c0,0,0-0.1,0-0.1
			c0.1,0.2,0,0.4,0,0.6c0,0,0,0,0,0.1c-0.1,0.4-0.1,0.8-0.1,1.1c0,0.1,0,0.2,0,0.2C149.3,21.5,149.3,21.5,149.1,21.4L149.1,21.4z"/>
		<path class="st1" d="M144.9,24.1c0,0.1,0,0.3-0.1,0.5c0,0.1,0,0.1-0.1,0.1c-0.7-0.2-1.3-0.4-2-0.7c0-0.1,0.1-0.1,0.1-0.1
			c0.6-0.1,1.3-0.1,1.9-0.2c0.1,0,0.2,0,0.1,0.2C144.9,23.9,144.9,24,144.9,24.1C144.9,24.1,144.9,24.1,144.9,24.1z"/>
		<path class="st1" d="M146,21.9C146,22,146,22,146,21.9c-0.2,0.1-0.3,0.2-0.4,0.3c-0.1,0.1-0.2,0.1-0.3,0c0-0.1-0.1-0.2-0.1-0.2
			c-0.3-0.5-0.6-1-0.9-1.5c0,0,0-0.1,0-0.1l0,0c0.1,0,0.1,0.1,0.2,0.1c0.2,0.2,0.5,0.4,0.7,0.5l0,0c0.1,0,0.2,0.2,0.4,0.3
			c0.1,0.1,0.2,0.2,0.4,0.3C146.2,21.7,146.2,21.8,146,21.9z"/>
		<path class="st1" d="M149.6,21.6c0-0.1,0-0.1,0.1-0.2c0.5-0.4,0.9-0.9,1.4-1.3c0,0,0.1-0.1,0.1,0c0,0,0,0,0,0.1c0,0,0,0.1,0,0.1
			c-0.1,0.2-0.2,0.3-0.2,0.5c0,0.1,0,0.2-0.1,0.3l0,0c-0.1,0.4-0.3,0.7-0.5,1c0,0.1-0.1,0.1-0.2,0c-0.1-0.1-0.3-0.2-0.4-0.4
			C149.6,21.7,149.6,21.7,149.6,21.6z"/>
		<path class="st1" d="M144.7,23.2c0-0.1-0.1-0.1-0.2-0.1c-0.4-0.3-0.7-0.6-1.1-0.9c0,0-0.1-0.1-0.1-0.1c0.1-0.1,0.1,0,0.2,0l0,0
			c0.1,0.1,0.3,0.1,0.5,0.1c0.4,0.1,0.8,0.3,1.3,0.4c0.1,0,0.1,0.1,0.1,0.2c-0.1,0.2-0.2,0.4-0.3,0.6c0,0.1-0.1,0.1-0.2,0
			C144.8,23.3,144.7,23.3,144.7,23.2z"/>
		<path class="st1" d="M148,19.9C148,19.9,148,19.9,148,19.9c0.1,0.4,0.2,0.7,0.2,1.1c0,0.3,0,0.3-0.2,0.3c-0.1,0-0.3,0-0.4,0
			c-0.1,0-0.2-0.1-0.2-0.2c0-0.3,0.1-0.6,0.1-0.8c0-0.4,0.1-0.8,0.1-1.3c0,0,0,0,0-0.1c0.1,0.1,0,0.2,0.1,0.3
			C147.9,19.4,148,19.6,148,19.9z"/>
		<path class="st2" d="M156.8,49.4c-0.1,0-0.1,0.1-0.1,0.2c0.1,0.1,0,0.4-0.1,0.4c-0.1-0.3-0.1-0.6-0.2-0.8
			c-0.2-0.4-0.4-0.8-0.5-1.2c-0.1-0.1,0-0.2,0.1-0.4c0,0,0.1,0,0.1,0c0.2,0.3,0.4,0.6,0.5,0.9C156.6,48.9,156.7,49.1,156.8,49.4z"/>
		<path class="st6" d="M154.7,48c0.1,0.1,0.1,0.2,0.2,0.2c0.1,0.1,0.1,0.1,0.1,0.2c-0.1,0.2,0.1,0.3,0.2,0.4
			c0.2,0.3,0.1,0.6,0.1,0.9c-0.1-0.5-0.4-0.9-0.6-1.3C154.5,48.2,154.5,48.2,154.7,48z"/>
		<path class="st11" d="M153,50c0,0,0-0.1-0.1-0.1c0.1-0.1,0.1-0.3,0.2-0.3c0,0,0.1,0,0.1,0c0.2,0.2,0.4,0.2,0.6,0.2
			c0.1,0,0.2-0.1,0.2,0.1c0,0.1,0,0.3-0.1,0.3c-0.2,0.1-0.6,0.1-0.7-0.2c0,0,0-0.1-0.1-0.1C153,49.8,153.1,49.9,153,50z"/>
		<path class="st8" d="M150.6,46.4c0-0.3-0.2-0.5-0.3-0.7c0,0-0.1-0.1-0.1,0c-0.1,0.1-0.2,0-0.2-0.1c0-0.1,0-0.2,0.1-0.2
			c0.1-0.1,0.2-0.1,0.3,0c0.1,0.1,0.3,0.3,0.3,0.4c0.1,0.1,0.1,0.3,0.2,0.4c0,0,0,0,0,0c0,0.1,0,0.1,0,0.2l0,0
			C150.7,46.4,150.7,46.4,150.6,46.4z"/>
		<path class="st14" d="M155.2,47c-0.1-0.1-0.3-0.1-0.4-0.2c0.1-0.3,0.2-0.3,0.5-0.2c0.1,0.1,0.1,0.2,0.1,0.3c0,0.2-0.3,0.4-0.5,0.3
			c-0.1,0-0.2-0.2-0.1-0.3c0-0.1,0.1,0,0.1,0C154.9,47.1,155.1,47.1,155.2,47z"/>
		<path class="st9" d="M152.3,48.6c-0.1,0-0.1,0.1-0.1,0.2c0,0,0,0,0,0c0,0,0,0,0-0.1c0-0.2-0.1-0.4-0.2-0.5c0,0-0.1-0.2-0.2,0
			c0,0.1-0.2,0-0.3-0.1c-0.1,0-0.1-0.1,0-0.1c0.1-0.1,0-0.3,0.2-0.2c0.1,0,0.2,0.1,0.3,0.2C152.1,48.2,152.1,48.5,152.3,48.6
			C152.3,48.6,152.3,48.6,152.3,48.6z"/>
		<path class="st15" d="M157.5,46.2c0,0.2-0.1,0.2-0.2,0.2c-0.4,0.1-0.8,0.2-1.2,0.4c0,0-0.1,0.1-0.1,0c0,0,0-0.1,0-0.1
			c0.3-0.1,0.5-0.3,0.8-0.3C157,46.3,157.2,46.3,157.5,46.2z"/>
		<path class="st16" d="M146.4,47.5C146.4,47.6,146.3,47.6,146.4,47.5c-0.1,0.1-0.1,0.1-0.2,0.1c0,0-0.1,0-0.1,0
			c-0.1,0-0.1-0.1-0.1-0.1c0,0,0-0.1,0-0.1c0-0.1,0-0.2,0-0.3c0-0.1,0-0.1,0.1-0.2c0,0.2,0.1,0.3,0.1,0.4c0,0.1,0,0.2,0.1,0.2
			c0,0,0.1,0,0.1,0c0,0,0-0.1,0-0.1c-0.1-0.1,0-0.2-0.1-0.3c0,0,0-0.1,0-0.1c0,0,0.1,0,0.1,0c0.1,0.1,0.1,0.3,0.1,0.4
			C146.5,47.4,146.4,47.4,146.4,47.5z"/>
		<path class="st17" d="M149.5,48.6c0,0,0.3,0.2,0.3,0.2c0,0.1-0.2,0.3-0.2,0.3c-0.1,0-0.2-0.1-0.3-0.2
			C149.3,48.9,149.5,48.6,149.5,48.6z"/>
		<path class="st9" d="M150,48.8c0.1-0.1,0.1-0.3,0.2-0.3c0.1,0,0.3,0.2,0.3,0.3c-0.1,0.1-0.1,0.2-0.2,0.2
			C150.2,49.1,150,48.9,150,48.8z"/>
		<path class="st18" d="M151.4,45.4c-0.1-0.1-0.2-0.2-0.4-0.1c-0.1,0,0-0.1,0-0.1c0,0,0-0.1,0.1-0.1c0-0.1,0.1-0.1,0.1-0.1
			c0,0.1,0.1,0,0.1,0.1c0.1,0.1,0.2,0.1,0.2,0.2C151.5,45.4,151.4,45.4,151.4,45.4z"/>
		<path class="st19" d="M153,47.8C152.9,47.8,152.9,47.9,153,47.8c-0.1,0.1-0.1,0.1-0.2,0.1c-0.1-0.1-0.2-0.2-0.3-0.1
			c0,0-0.1,0-0.1,0c0-0.1,0.1-0.2,0.2-0.2c0.1-0.1,0.1,0,0.1,0C152.8,47.6,152.9,47.7,153,47.8z"/>
		<path class="st20" d="M147.5,47.1c-0.1,0.1-0.1,0.2-0.2,0.1c-0.1,0-0.1-0.1-0.2-0.2c0,0,0-0.1,0-0.1c0,0,0.1,0,0.1,0
			C147.3,47.1,147.4,47,147.5,47.1z"/>
		<path class="st21" d="M145.9,47.3C146,47.3,146,47.4,145.9,47.3c0,0.1,0,0.2-0.1,0.2l0,0c-0.2,0.1-0.2,0.1-0.3,0c0,0,0,0,0,0
			c0,0,0-0.1,0-0.1c0,0,0-0.1,0-0.1c0,0,0.1,0,0.1,0.1c0,0.1,0.1,0.1,0.1,0C145.8,47.4,145.9,47.3,145.9,47.3z"/>
		<path class="st22" d="M154,49c0.1,0.2,0.1,0.4,0.1,0.6C153.9,49.4,153.8,49.3,154,49z"/>
		<path class="st23" d="M157.5,48.6c-0.1,0.3-0.2,0.3-0.3,0.2c-0.1-0.1,0-0.2,0-0.3c0-0.1,0.1,0,0.1,0
			C157.2,48.6,157.3,48.6,157.5,48.6z"/>
		<path class="st24" d="M149.3,50.7c0,0.1,0,0.1-0.1,0.1C149.1,50.7,149.2,50.7,149.3,50.7z"/>
		<path class="st4" d="M155.5,24.9c-0.2,0.1-0.4,0.3-0.6,0.5c-0.5,0.5-1,0.9-1.4,1.5c-0.1,0.1-0.2,0.2-0.3,0.4
			c-0.3,0.3-0.6,0.7-0.8,1.1c-0.3,0.4-0.6,0.8-0.8,1.2c-0.3,0.5-0.6,1-0.8,1.6c0,0.1-0.1,0.2-0.1,0.3c0,0.1-0.1,0.1-0.1,0.2
			c-0.1,0.4-0.3,0.7-0.4,1c-0.2,0.5-0.4,0.9-0.5,1.4c-0.1,0.3-0.2,0.6-0.3,0.9c-0.1,0.5-0.3,0.9-0.4,1.4c-0.1,0.3-0.2,0.7-0.3,1
			c-0.1,0.3-0.1,0.5-0.2,0.8c0,0.2-0.1,0.3-0.1,0.5c0,0.1,0,0.1,0,0.2c0,0.1,0,0.1-0.1,0.1c-0.1,0-0.1-0.1-0.1-0.1c0,0,0-0.1,0-0.1
			c0-0.4-0.1-0.8-0.1-1.2c0.1-0.2,0-0.4,0-0.5c-0.1-0.5-0.2-1.1-0.3-1.6c-0.1-0.5-0.2-0.9-0.4-1.4c-0.1-0.1,0-0.2-0.1-0.3
			c-0.2-0.7-0.5-1.4-0.8-2.1c-0.2-0.4-0.4-0.8-0.5-1.2c-0.2-0.4-0.4-0.9-0.7-1.3c-0.3-0.5-0.7-1-1-1.5c-0.4-0.5-0.8-0.9-1.2-1.3
			c-0.5-0.5-1-0.9-1.5-1.3c0,0-0.1,0-0.1-0.1c-0.1-0.1-0.3-0.1-0.3-0.2c-0.1,0-0.1-0.1-0.2-0.1l0,0c0,0-0.1,0,0-0.1c0,0,0.1,0,0.1,0
			l0,0c0.2,0.1,0.5,0.2,0.7,0.3c0.5,0.2,1,0.5,1.5,0.8c0.3,0.2,0.6,0.5,0.9,0.7c0.4,0.3,0.7,0.5,1,0.8c0.6,0.5,1.1,1.1,1.7,1.7
			c0.3,0.3,0.5,0.6,0.8,0.9c0.4,0.5,0.9,0.5,1.4,0.4c0.3-0.1,0.5-0.3,0.8-0.5c0.4-0.4,0.8-0.9,1.2-1.4c0.4-0.6,0.9-1.2,1.3-1.7
			c0.3-0.4,0.7-0.8,1-1.2c0-0.1,0.2-0.2,0.3-0.3c0.2-0.2,0.4-0.4,0.6-0.5c0.1-0.1,0.3-0.2,0.5-0.3l0,0c0.1-0.1,0.2-0.2,0.3-0.2l0,0
			l0,0c0.1-0.1,0.2-0.2,0.3-0.2c0.2-0.1,0.3-0.1,0.5-0.2c0.3-0.2,0.6-0.3,0.8-0.4c0.2-0.1,0.5-0.2,0.7-0.2c0.1,0,0.1,0,0.2-0.1
			c0.1,0,0.1,0,0.2,0c0.5-0.1,1,0,1.5,0c0.2,0,0.4,0,0.6,0.1c0.3,0,0.5,0.2,0.8,0.1c-0.1,0.1-0.2,0.1-0.2,0.1c-0.2,0-0.3,0-0.5,0
			c0,0,0,0,0,0c0,0,0,0,0,0c-0.2,0-0.4,0.1-0.7,0.2c-0.4,0-0.7,0.2-1,0.3c-0.5,0.2-1,0.5-1.5,0.8C156,24.4,155.7,24.6,155.5,24.9z"
			/>
		<path class="st1" d="M149,21.7c0.4,0.2,0.8,0.5,1.2,0.9c0.2,0.2,0.3,0.4,0.4,0.7c0.1,0.2,0.2,0.4,0.2,0.7c0,0,0,0.1,0,0.1
			c0.1,0.3,0,0.5-0.3,0.7c-0.8,0.6-1.5,1.3-2.3,1.9c-0.1,0.1-0.1,0.1-0.2,0c-0.9-0.6-1.8-1.2-2.6-1.8c-0.1-0.1-0.2-0.2-0.2-0.4
			c0-1.1,0.4-1.9,1.2-2.5c0,0,0.1-0.1,0.1-0.1c0.2-0.2,0.4-0.3,0.7-0.4c0.5-0.1,1-0.2,1.6,0C148.8,21.6,148.9,21.6,149,21.7z"/>
		<path class="st1" d="M150.6,22.8c-0.1-0.1-0.1-0.2-0.2-0.3c-0.1-0.1,0-0.1,0.1-0.2c0.5-0.2,1-0.4,1.6-0.6c0.1,0,0.1,0,0.2-0.1
			c0,0,0.1-0.1,0.1,0c0,0,0,0,0,0.1l0,0c-0.2,0.2-0.3,0.4-0.5,0.5c0,0,0,0,0,0c-0.2,0.2-0.3,0.4-0.5,0.6l0,0
			c-0.1,0.2-0.2,0.2-0.3,0.4c-0.1,0.1-0.2,0.1-0.3,0C150.7,23,150.6,22.9,150.6,22.8z"/>
		<path class="st4" d="M146.3,39.5c-0.1-0.2-0.3-0.2-0.4-0.4c-0.3-0.3-0.7-0.5-1.1-0.7c0,0-0.1,0-0.1,0c-0.1-0.1-0.2-0.1-0.2-0.1
			c-0.2-0.1-0.4-0.3-0.7-0.4c-0.3-0.2-0.6-0.3-1-0.4c0,0,0,0-0.1,0c-0.2-0.1-0.3-0.1-0.5-0.2c-0.2-0.1-0.4-0.2-0.6-0.3l0,0
			c-0.5-0.1-1.1-0.3-1.6-0.4c-0.3-0.1-0.6-0.1-0.9-0.2c-0.3,0-0.5-0.1-0.8-0.1c-0.6-0.1-1.1-0.2-1.7-0.2c-0.3,0-0.5-0.1-0.8-0.1
			c-0.1,0-0.1-0.1-0.2-0.2c-0.1-0.3-0.1-0.7-0.2-1c0,0,0,0,0-0.1l0,0c-0.1-0.4-0.2-0.8-0.2-1.2c-0.1-0.4-0.1-0.7-0.2-1.1
			c-0.1-0.5-0.2-1.1-0.3-1.6c-0.2-0.7-0.3-1.4-0.4-2.1c-0.1-0.4-0.2-0.8-0.2-1.2c0-0.1,0-0.2,0-0.3c0.4-0.1,0.7,0,1.1,0c0,0,0,0,0,0
			c0.4,0,0.4,0.1,0.5,0.5c0.1,0.4,0.1,0.7,0.2,1.1c0,0.3,0.1,0.6,0.2,0.9c0,0.4,0.2,0.8,0.2,1.2c0.1,0.4,0.2,0.8,0.2,1.2
			c0,0.1,0,0.1,0.1,0.2c0,0.1,0,0.3,0.1,0.5c0,0,0,0,0,0.1c0,0.4,0.1,0.7,0.2,1.1c0,0.1,0.1,0.2,0.1,0.3c0.3,0.1,0.6,0.1,0.9,0.2
			c0.5,0.2,1.1,0.2,1.6,0.4c0.1,0,0.3,0,0.4,0.1c0.2,0.1,0.4,0.1,0.5,0.2c0.7,0.2,1.4,0.5,2.2,0.8c0.3,0.2,0.6,0.3,0.8,0.4
			c0.6,0.3,1.2,0.7,1.7,1.1c0.4,0.3,0.7,0.6,1.1,1c0.1,0.2,0.2,0.3,0.4,0.5c0.1,0.1,0.1,0.2,0.2,0.3c0,0.1,0.1,0.1,0.1,0.2
			c0.2,0.3,0.4,0.7,0.6,1c0.1,0.2,0.1,0.3,0.2,0.5l0,0c0,0,0,0.1,0,0.1c0,0.1,0,0.1,0,0.1c-0.1,0-0.1,0-0.1-0.1
			c-0.1-0.2-0.3-0.4-0.4-0.5c0,0-0.1-0.1-0.1-0.1c-0.1-0.1-0.2-0.3-0.4-0.4C146.5,39.7,146.4,39.6,146.3,39.5z"/>
		<path class="st1" d="M154.3,27.7c0,0,0.1-0.1,0.1-0.1c0.1-0.1,0.2-0.2,0.3-0.2c0.3-0.2,0.6-0.5,1-0.7c0.4-0.3,0.9-0.5,1.3-0.7
			c0,0,0,0,0.1,0c0.1-0.1,0.2-0.1,0.3-0.1c0.3-0.1,0.6-0.2,0.9-0.3c0.4-0.1,0.7-0.2,1.1-0.3c0.1,0,0.2,0,0.3,0
			c0.4-0.1,0.8-0.1,1.3-0.1c0.4,0,0.3,0,0.3,0.3c-0.2,0.7-0.3,1.4-0.4,2.1c0,0.1,0,0.2-0.1,0.3c-0.1,0.3-0.1,0.6-0.2,0.9
			c-0.1,0.5-0.2,1.1-0.3,1.6c-0.1,0.3-0.1,0.6-0.2,1c-0.1,0.4-0.2,0.9-0.2,1.3c0,0.1,0,0.2,0,0.3c-0.1,0.3-0.1,0.6-0.2,1
			c0,0.1-0.1,0.2-0.2,0.2c-0.2,0.1-0.4,0.1-0.6,0.1c-0.4,0-0.8,0.1-1.2,0.2c-0.3,0-0.6,0.1-1,0.2c-0.6,0.1-1.2,0.3-1.7,0.5
			c-1,0.4-2,0.9-2.9,1.5c-0.1,0-0.1,0-0.2,0.1c0,0,0,0,0,0c-0.1,0.1-0.2,0.2-0.3,0.3c-0.1,0.1-0.1,0.1-0.2,0.2
			c-0.1,0-0.1,0.1-0.2,0.2c-0.3,0.3-0.6,0.6-1,0.9c-0.1,0-0.1,0.1-0.2,0.2c-0.1,0.1-0.2,0.2-0.2,0.3c-0.2,0.3-0.5,0.6-0.7,0.9
			c-0.1,0.1-0.2,0.3-0.3,0.5c0,0,0,0,0,0c-0.1,0-0.1-0.1-0.1-0.2c0-0.3,0.1-0.6,0.1-0.9c0-0.3,0.2-0.6,0.2-0.9c0,0,0,0,0-0.1
			c0.1-0.3,0.2-0.6,0.3-0.9c0.1-0.4,0.2-0.7,0.3-1.1c0-0.1,0.1-0.3,0.1-0.4c0.1-0.4,0.2-0.7,0.3-1c0.1-0.3,0.3-0.6,0.4-0.9
			c0-0.1,0.1-0.2,0.1-0.3l0,0c0.1-0.2,0.2-0.4,0.3-0.6c0.1-0.1,0.1-0.3,0.2-0.4c0,0,0-0.1,0-0.1c0.2-0.4,0.4-0.8,0.6-1.2
			c0.1-0.1,0.1-0.2,0.2-0.2l0,0c0.1-0.2,0.3-0.4,0.4-0.6c0.3-0.3,0.5-0.7,0.8-1C153.4,28.5,153.8,28.1,154.3,27.7z"/>
		<path class="st25" d="M150.4,31.6c0-0.1,0.1-0.1,0.1-0.2C150.6,31.5,150.5,31.6,150.4,31.6z"/>
		<path class="st26" d="M144,49.5c-0.1,0-0.2,0-0.4-0.1C143.7,49.2,143.8,49.3,144,49.5z"/>
		<path class="st4" d="M161.2,28c0.1-0.3,0.1-0.3,0.4-0.3c0.3,0,0.7,0,1,0c0.1,0,0.2,0,0.1,0.2c-0.1,0.5-0.2,1-0.3,1.5l0,0
			c-0.1,0.6-0.2,1.1-0.4,1.6c-0.1,0.3-0.1,0.6-0.2,1c-0.2,0.6-0.3,1.2-0.4,1.9c-0.1,0.3-0.2,0.7-0.2,1c-0.1,0.4-0.2,0.8-0.3,1.3
			c0,0.1-0.1,0.2-0.2,0.2c-0.6,0-1.1,0.1-1.7,0.1c-0.3,0-0.6,0.1-0.9,0.1c-0.3,0-0.7,0.1-1,0.1c-0.3,0.1-0.7,0.2-1,0.2
			c-0.4,0.1-0.9,0.2-1.3,0.3c-0.2,0.1-0.4,0.2-0.7,0.2l0,0c0,0.1-0.1,0.1-0.1,0.1c-0.3,0.1-0.6,0.3-0.9,0.4
			c-0.3,0.1-0.5,0.3-0.7,0.3c-0.9,0.4-1.7,1-2.4,1.6c-0.1,0.1-0.3,0.3-0.4,0.4c0,0-0.1,0.1-0.1,0.1l0,0c0,0-0.1,0.1-0.1,0.1
			c-0.2,0.2-0.3,0.4-0.5,0.7c0,0.1,0,0-0.1,0l0,0c0.1-0.2,0.2-0.4,0.2-0.6c0.1-0.3,0.3-0.6,0.5-0.8c0.1-0.1,0.2-0.3,0.3-0.4
			c0.2-0.2,0.3-0.4,0.5-0.5c0.1-0.1,0.2-0.2,0.3-0.3c0.1,0,0.1-0.1,0.2-0.2c0.3-0.3,0.6-0.5,1-0.8c0.1-0.1,0.2-0.2,0.3-0.3
			c0.6-0.4,1.2-0.7,1.8-1c0,0,0,0,0,0c0.1,0,0.2-0.1,0.3-0.1c0.2-0.1,0.5-0.2,0.7-0.3c0.1-0.1,0.2,0,0.3-0.1c0,0,0,0,0.1,0
			c0.4-0.1,0.7-0.3,1.1-0.3c0.1,0,0.2-0.1,0.2-0.1c0.3,0,0.6-0.1,0.9-0.2c0.3-0.1,0.6-0.1,0.8-0.2c0.3-0.1,0.7-0.1,1-0.2
			c0.1,0,0.2,0,0.4-0.1c0.2,0,0.3-0.1,0.3-0.2c0.1-0.4,0.2-0.8,0.3-1.2c0.1-0.2,0-0.4,0.1-0.5c0.1-0.5,0.3-1.1,0.4-1.6
			c0-0.1,0-0.2,0-0.3c0.1-0.3,0.1-0.6,0.2-0.9c0.1-0.2,0.1-0.4,0.2-0.7C161,29.1,161,29,161,29C161.1,28.6,161.2,28.3,161.2,28z"/>
		<path class="st27" d="M151.3,51.3c0.2,0.1,0,0.1,0,0.2l0,0c-0.1,0-0.2,0.1-0.3,0c0,0,0,0-0.1,0c-0.1,0-0.1,0-0.2,0
			c-0.1,0-0.2,0-0.1-0.1c0.2-0.1,0.3-0.2,0.5-0.1C151.2,51.4,151.3,51.3,151.3,51.3z"/>
		<path class="st28" d="M150.1,51.8c-0.1,0-0.1,0-0.2,0c0.1-0.1,0.2-0.1,0.3-0.2c0,0,0,0,0,0C150.2,51.8,150.2,51.9,150.1,51.8z"/>
		<path class="st29" d="M150.3,51.7C150.2,51.7,150.2,51.7,150.3,51.7c0-0.1,0.1-0.2,0.2-0.2c0,0,0,0.1,0,0.1c0,0,0,0,0,0
			C150.4,51.7,150.3,51.7,150.3,51.7z"/>
		<path class="st30" d="M150.4,51.6C150.4,51.6,150.4,51.6,150.4,51.6c0-0.1,0.1-0.2,0.1-0.2c0,0,0.1,0,0.1,0c0,0,0,0.1,0,0.1
			C150.5,51.6,150.5,51.6,150.4,51.6z"/>
		<path class="st31" d="M152,51c0,0.1,0,0.1,0,0.1c0,0,0,0-0.1,0C151.9,51.1,151.9,51,152,51z"/>
		<path class="st1" d="M146.8,34.4c0.2,0.5,0.3,1.1,0.5,1.6c0.1,0.4,0.2,0.8,0.3,1.2c0.1,0.6,0.2,1.1,0.3,1.7c0,0.1,0,0.1,0,0.2
			c0.1,0.2,0,0.4,0.1,0.6c0,0.2,0,0.3,0,0.5c0,0.1,0,0.2-0.1,0.1l0,0l0,0c-0.3-0.4-0.6-0.9-0.9-1.2c0,0,0,0-0.1-0.1
			c0,0,0-0.1-0.1-0.1c0,0,0,0,0,0c-0.1-0.1-0.2-0.3-0.3-0.4c-0.1-0.1-0.2-0.2-0.2-0.3c-0.1-0.1-0.2-0.2-0.3-0.3
			c0-0.1-0.1-0.1-0.2-0.2c-0.1-0.1-0.2-0.2-0.3-0.3c0,0,0,0,0,0c-0.3-0.3-0.6-0.6-1-0.8c-0.4-0.3-0.7-0.5-1.1-0.8
			c-0.2-0.2-0.5-0.3-0.7-0.4c-0.3-0.1-0.5-0.3-0.8-0.4c-0.7-0.3-1.3-0.5-2-0.7c-0.7-0.2-1.5-0.4-2.2-0.4c-0.1,0-0.1,0-0.2-0.1
			c-0.1,0-0.2-0.1-0.2-0.2c0-0.5-0.1-0.9-0.2-1.4c0,0,0-0.1,0-0.1c0-0.4-0.1-0.7-0.2-1.1c0-0.1,0-0.2,0-0.3
			c-0.1-0.9-0.3-1.8-0.4-2.7c-0.1-0.6-0.2-1.1-0.2-1.7c-0.1-0.4-0.1-0.7-0.2-1.1c0,0,0-0.1,0-0.1c0-0.3,0-0.4,0.3-0.3
			c0.6,0,1.1,0.2,1.7,0.3c0.3,0.1,0.6,0.2,0.9,0.3c0.3,0.1,0.5,0.2,0.8,0.3c0.1,0,0.2,0.1,0.3,0.2c0.1,0,0.1,0.1,0.2,0.1
			c0.6,0.3,1.2,0.7,1.7,1.1c0.1,0.1,0.3,0.2,0.4,0.3c0.1,0,0.1,0.1,0.1,0.1c0.3,0.3,0.6,0.6,0.9,0.9c0.1,0.1,0.2,0.2,0.3,0.3
			c0.1,0.2,0.4,0.4,0.5,0.7c0.1,0.1,0.1,0.2,0.2,0.3c0.2,0.3,0.4,0.6,0.6,0.9c0.3,0.4,0.5,0.8,0.7,1.2c0.1,0.2,0.1,0.3,0.2,0.5
			c0.3,0.5,0.5,1.1,0.7,1.7C146.7,34.1,146.7,34.2,146.8,34.4z"/>
		<path class="st32" d="M144.2,45.1c0,0,0-0.1,0-0.1c0.1-0.1,0.1-0.2,0.2-0.2c0.1,0.1,0.2,0.2,0.2,0.4
			C144.4,45.1,144.3,45.1,144.2,45.1z"/>
		<path class="st1" d="M153.1,23.4c-0.6,0.3-1.3,0.6-1.9,0.9c-0.1,0-0.1,0-0.2-0.1c0-0.2-0.1-0.4-0.1-0.6c0-0.1,0-0.2,0.1-0.2
			C151.7,23.4,152.4,23.4,153.1,23.4C153.1,23.4,153.1,23.4,153.1,23.4C153.1,23.4,153.1,23.4,153.1,23.4z"/>
		<path class="st1" d="M146.1,20.2c0-0.2-0.1-0.5-0.2-0.7c0,0,0-0.1,0-0.2c0.2,0.2,0.3,0.6,0.5,0.8c0.2,0.4,0.4,0.7,0.6,1
			c0.1,0.1,0.1,0.2-0.1,0.2c-0.2,0.1-0.4,0.2-0.5,0.2c-0.1,0-0.1,0.1-0.2,0c0,0,0,0,0-0.1c0-0.1-0.1-0.3-0.1-0.4
			C146.2,20.8,146.1,20.5,146.1,20.2z"/>
		<path class="st26" d="M149,42.4c-0.1,0-0.2,0-0.4-0.1C148.7,42.2,148.8,42.2,149,42.4z"/>
		<path class="st33" d="M140.3,51.1c0.1-0.2,0.1-0.1,0.2,0c0.1,0.1,0.2,0.3,0.3,0.4c0.1,0.1,0.1,0.2,0.1,0.3
			c-0.1,0.1-0.1-0.1-0.2-0.1c0-0.1-0.1-0.1-0.1-0.2c-0.1,0-0.1-0.1-0.1-0.2C140.4,51.2,140.3,51.2,140.3,51.1
			C140.2,51.2,140.2,51.1,140.3,51.1z"/>
		<path class="st34" d="M146.8,51.4c-0.1,0-0.2,0.1-0.3,0.1c-0.1,0-0.2,0-0.3-0.1c-0.1-0.1-0.2,0.1-0.3,0c0,0,0-0.1,0-0.1
			c0.1-0.1,0.2-0.2,0.4-0.2c0.2,0,0.4,0.1,0.6,0c0,0,0,0,0,0c0,0,0,0.1,0,0.1l0,0C146.9,51.4,146.8,51.4,146.8,51.4z"/>
		<path class="st35" d="M146.9,51.2c0-0.1-0.1-0.2-0.2-0.1c0,0-0.1,0-0.1,0c0,0,0-0.1,0-0.1c0.1-0.1,0.2-0.2,0.4-0.1
			C147.1,51.1,147.1,51.2,146.9,51.2L146.9,51.2z"/>
		<path class="st35" d="M144.6,51.7c-0.1,0-0.1,0.1-0.1,0.1c0,0,0,0,0,0c-0.1,0.1-0.1-0.1-0.2-0.1c0,0,0,0,0,0c0,0,0,0,0,0
			c0-0.1-0.1-0.3,0-0.3c0.1,0,0.2,0.1,0.3,0.2C144.6,51.6,144.6,51.6,144.6,51.7z"/>
		<path class="st36" d="M145.4,51.9c-0.1,0.1-0.2,0.1-0.3,0.2c0,0,0,0,0,0c0,0-0.1,0-0.1,0c0,0,0,0,0-0.1c0.1-0.1,0.2-0.1,0.3-0.2
			C145.4,51.8,145.5,51.8,145.4,51.9z"/>
		<path class="st37" d="M145.9,51.5C145.9,51.5,145.9,51.5,145.9,51.5c-0.1,0.1-0.1,0.2-0.2,0.1c0,0,0-0.1,0-0.1
			C145.8,51.4,145.9,51.4,145.9,51.5C145.9,51.4,145.9,51.4,145.9,51.5z"/>
		<path class="st38" d="M145.7,51.6c0,0.1,0,0.2-0.2,0.1C145.6,51.6,145.6,51.6,145.7,51.6z"/>
		<path class="st39" d="M145,52C145,52,145,52,145,52c0,0.1,0,0.2-0.1,0.2c-0.1,0,0-0.1,0-0.1C144.9,52,144.9,52,145,52z"/>
		<path class="st40" d="M144.7,52.2C144.7,52.1,144.7,52.1,144.7,52.2c0.1-0.1,0.1,0,0.1,0C144.8,52.2,144.7,52.2,144.7,52.2z"/>
		<path class="st18" d="M140.4,46.5c0.1,0,0.1,0,0.1,0.1c0,0.1,0.1,0.2,0.2,0.2c0,0,0.1,0,0.1,0c0,0,0,0.1,0,0.1c0,0-0.1,0-0.2,0
			C140.4,46.8,140.4,46.7,140.4,46.5L140.4,46.5z"/>
		<path class="st41" d="M140,46.7c0.1,0,0.2,0.1,0.3,0.1c0,0,0.1,0,0.1,0c0,0,0,0-0.1,0.1c-0.1,0.1-0.2,0.1-0.3,0.1
			C140,46.9,140,46.8,140,46.7z"/>
		<path class="st42" d="M140.7,46.3C140.7,46.3,140.7,46.3,140.7,46.3c0.1,0.1,0.1,0.1,0.1,0.2c0,0,0,0,0,0
			C140.7,46.5,140.7,46.4,140.7,46.3C140.7,46.3,140.7,46.3,140.7,46.3z"/>
		<path class="st43" d="M140.4,46.5C140.4,46.5,140.4,46.4,140.4,46.5c-0.1-0.1-0.1-0.1,0-0.2c0,0,0,0,0.1,0
			C140.5,46.3,140.4,46.4,140.4,46.5C140.4,46.4,140.4,46.5,140.4,46.5C140.4,46.5,140.4,46.5,140.4,46.5z"/>
		<path class="st44" d="M140.7,46.3C140.7,46.3,140.7,46.3,140.7,46.3c-0.1,0-0.1,0-0.1,0C140.6,46.2,140.7,46.2,140.7,46.3
			C140.8,46.2,140.8,46.3,140.7,46.3z"/>
		<path class="st15" d="M143.9,48C143.9,48,143.9,48,143.9,48c-0.1,0.2-0.2,0.3-0.3,0.2l0,0c-0.1-0.1-0.2-0.2-0.1-0.4
			c0-0.1,0.1-0.1,0.1,0c0,0,0,0,0,0C143.7,47.9,143.8,47.9,143.9,48z"/>
		<path class="st13" d="M137.5,45.6c0-0.1,0-0.2,0-0.3c0.1-0.2,0.1-0.2,0.2-0.1c0,0,0.1,0.1,0.1,0.1c0,0,0,0.1,0.1,0.1c0,0,0,0,0,0
			c0.1,0,0.1,0.1,0.1,0.2l0,0c0,0.1,0.1,0.2,0.1,0.3c0,0.1,0,0.1-0.1,0.1c-0.1,0-0.1-0.1-0.1-0.1c0,0,0,0,0-0.1
			c-0.1-0.1-0.1-0.2-0.2-0.2C137.7,45.8,137.6,45.7,137.5,45.6z"/>
		<path class="st45" d="M138.2,46.4c-0.1,0-0.1,0-0.1-0.1c0,0,0-0.1,0-0.1c0.1-0.1,0.1-0.1,0.2,0c0,0,0,0,0,0
			C138.2,46.3,138.2,46.3,138.2,46.4L138.2,46.4z"/>
		<path class="st46" d="M153.2,45.1c0,0-0.1-0.1-0.1-0.1c0.1-0.1,0-0.1,0-0.1c-0.1,0-0.1-0.1-0.1-0.2c0-0.1,0.1-0.2,0.2-0.1
			c0.1,0.1,0.2,0.1,0.2,0.2c0,0.1,0.1,0.2,0.1,0.3c0.1,0.1,0,0.2,0.1,0.3c0,0.1,0,0.1-0.1,0.1C153.3,45.3,153.2,45.2,153.2,45.1z"/>
		<path class="st47" d="M153.4,45.6c0-0.1,0-0.1,0-0.2c0,0,0.1,0,0.1-0.1c0,0,0,0,0.1,0.1c0,0,0,0,0,0c0,0,0,0,0,0c0,0,0,0,0,0
			c0,0,0,0.1,0,0.1C153.5,45.7,153.5,45.7,153.4,45.6C153.4,45.6,153.4,45.6,153.4,45.6z"/>
		<path class="st48" d="M159.4,49.3c0-0.1,0-0.2,0.1-0.3c0,0,0,0,0.1,0c0,0.1-0.1,0.1,0,0.2C159.5,49.2,159.6,49.3,159.4,49.3
			C159.5,49.3,159.4,49.3,159.4,49.3z"/>
	</g>
	<g>
		<g>
			<g>
				<g>
					<g>
						<g>
							<g>
								<path class="st1" d="M168.1,56.2c-1.3-2.4-2.6-4.7-3.9-7.1l0,0c-0.1-0.1-0.1-0.2-0.2-0.3c-0.1,0-0.2,0-0.3,0.1
									c3.4,9.7,1,1.3-14.6,10.3C155.2,56.6,161.6,55.9,168.1,56.2z M164.1,49.1c0,0,0.1,0,0.1,0C164.1,49.1,164.1,49.1,164.1,49.1
									z"/>
							</g>
						</g>
						<g>
							<g>
								<path class="st1" d="M163.6,51.7c-0.4-1.4-0.9-2.8-1.4-4.2c-0.6,0.4-1.4,0.4-1.1,1.4l0,0c0.1,0.7,0.2,1.5,0.4,2.2
									c0,0,0,0.1,0,0.1c0,0,0,0.1,0,0.1l0,0c-0.1,0.2-0.1,0.3-0.2,0.5c-4.6,1.3-9.1,3.2-12.7,6.5c4.7-2.9,9.9-4.6,15.5-5.2
									C163.9,52.6,163.8,52.1,163.6,51.7z M161.5,51.3C161.6,51.3,161.6,51.3,161.5,51.3C161.6,51.3,161.6,51.3,161.5,51.3z"/>
							</g>
						</g>
						<g>
							<path class="st1" d="M147.3,57.9c-3-2.5-6.5-4.5-10.4-5.5c-0.1-0.1-0.1-0.1-0.2-0.1c-0.4-0.2-0.7-0.2-1.1-0.3
								c-1.8-0.4-0.4-2.5-0.5-3.7c0.1-0.4-0.8-0.6-1.2-0.9c-0.6,1.9-1.2,3.7-1.8,5.6c5.6,0.7,10.7,2.3,15.5,5.3
								C147.5,58.1,147.4,58.1,147.3,57.9z"/>
						</g>
						<g>
							<path class="st1" d="M146.8,59.1c-16.7-9.4-17.6,0.2-14.3-11.1c-1.5,2.7-3,5.5-4.6,8.3C134.3,55.9,140.8,56.6,146.8,59.1
								C146.7,59.1,146.7,59.1,146.8,59.1C146.8,59.2,146.9,59.1,146.8,59.1z"/>
						</g>
						<path class="st1" d="M144.1,59.3c0,0-1.1-0.3-1.1-0.3l-0.7-0.2l0,0c-16-4.6-18.8,3.2-12.9-7.6l0,0l0.6-1l-0.4,0.5c0,0,0,0,0,0
							c-2.2,2.9-4.4,5.7-6.6,8.5c6.8-1.8,13.5-1.5,20.3-0.2C143.3,59.2,144.1,59.3,144.1,59.3z"/>
						<path class="st1" d="M152,59.3c0,0,1.1-0.3,1.1-0.3l0.7-0.2l0,0c16-4.6,18.8,3.2,12.9-7.6l0,0l-0.6-1l0.4,0.5c0,0,0,0,0,0
							c2.2,2.9,4.4,5.7,6.6,8.5c-6.8-1.8-13.5-1.5-20.3-0.2C152.9,59.2,152,59.3,152,59.3z"/>
					</g>
				</g>
			</g>
			<path class="st1" d="M176.8,31.6c0,8.6-3.7,16.2-9.7,21.5c4.5-4.7,7.3-11.2,7.3-18.2c0-20.2-26.4-26.4-26.4-26.4
				s-26.4,7.4-26.4,26.4c0,7.1,2.8,13.5,7.3,18.2c-5.9-5.3-9.7-13-9.7-21.5c0-15.9,12.9-28.8,28.8-28.8
				C163.9,2.8,176.8,15.7,176.8,31.6z"/>
		</g>
	</g>
</g>
<g>
	<g>
		<path class="st49" d="M43.2,25.4c0.1,0.1,0.2,0.2,0.2,0.3c0.2,0.2,0.3,0,0.5,0c0.4-0.2,0.9-0.4,1.2-0.8c0.1-0.1,0.2-0.1,0.3-0.2
			c0.2-0.1,0.4-0.1,0.6-0.3c0.1,0,0.1-0.1,0.2-0.1c0.2-0.1,0.4-0.2,0.6,0l0,0c0.2,0.1,0.3,0.3,0.3,0.4c0.5,1.2,0.5,1.2,1.6,0.6
			c0.1-0.4,0.4-0.6,0.7-0.9c0-0.1,0.1-0.1,0.1-0.2c0.1-0.2,0.3-0.4,0.5-0.5c0.1-0.1,0.1-0.1,0.2-0.2c0.1-0.2,0.3-0.3,0.5-0.5
			c0.1-0.1,0.1-0.1,0.2-0.2c0.3-0.5,0.6-0.9,1.2-1.2l0,0c0.1-0.3,0.5-0.3,0.7-0.5l-0.1,0l0.1,0c0.1-0.3,0.5-0.3,0.7-0.4
			c1.3-1,3.2-1.1,4.4,0.1c0.7,0.8,1.3,1.5,1.7,2.5c0.2,0.4-0.3,1.3-0.8,1.4c-0.3-0.2-0.5-0.5-0.7-0.8c-1.4-2-3.2-2.4-5.2-1
			c-1.2,0.8-2.1,1.8-3.1,2.8c-0.3,0.3-0.2,0.4,0.2,0.5c1.1,0.4,2.1,0.4,3.2,0.1c1.1-0.3,2.2-0.2,3.3-0.7c0.5-0.2,1-0.4,1.4-0.7
			c0.3-0.2,0.6-0.4,0.9-0.2c0.1,0.3,0.5,0.5,0.1,0.8c-0.2,0.2-0.2,0.5-0.1,0.6c0.2,0.2,0.5,0.1,0.7,0c0.6-0.3,1.2-0.6,1.8-0.9
			c0.2-0.1,0.4-0.3,0.6-0.1c0.2,0.2,0,0.3-0.1,0.5c-0.3,0.9-1.2,1-1.7,1.6c-0.6,0.5-1.4,0.6-2.2,0.9c-1,0.7-2,1-3.2,0.5
			c-0.8,0-1.7,0-2.5,0.1c-1.4,0.2-2.7-0.2-4.1-0.7c-1-0.5-1.1-1.3-1.5-2.1c-0.1-0.3-0.3-0.4-0.4-0.3c-0.8,0.6-1.8,0.9-2.5,1.8
			c-0.4,0.5,0,1-0.3,1.4c-0.4-0.1-0.2-0.5-0.3-0.7c-0.1-0.3-0.1-0.8-0.8-0.4c-0.9,0.4-1.8,0.5-2.8,0.1c-0.3-0.1-0.3-0.4-0.4-0.6
			c-0.1-0.2,0-0.5-0.3-0.6c-0.3-0.8-0.1-1.6,0.5-2.2c0.2-0.1,0.3-0.3,0.5-0.4c0.1-0.5,0.6-0.7,1-0.8c0.2,0,0.3,0,0.5,0
			c0.3,0.1,0.7,0.2,0.9,0.6c0,0.2,0.3,0.2,0.3,0.3C42.9,24.8,43.2,25,43.2,25.4z"/>
		<path class="st50" d="M98,28.7c0.4,0.5,0,1.1,0.2,1.6c0.8,1.8,2.5,2.5,4.4,1.1c0.5-0.4,1-0.7,1.5-1.2c0.7-0.7,0.8-1.4,0.4-2.4
			c-0.2-0.5-0.2-1.1-0.3-1.6c0-1.6-0.5-3.1-0.6-4.7c-0.1-1.4-0.6-2.7-0.7-4.1c-0.1-1.5-0.5-2.9-0.6-4.3c0-0.6-0.4-1.2-0.3-1.8
			c0.1-0.5,0.1-1,0.3-1.5c-0.1-0.5,0.1-0.8,0.6-1l0,0c0.6-0.2,0.9,0,1.2,0.5c0,0.1,0.1,0.1,0.1,0.2c1,0.5,1.6,1.4,2.2,2.2
			c0,0,0.1,0.1,0.1,0.1c0.9,0.8,1.7,1.7,2.3,2.8c0.2,0.4,0.4,0.7,0.7,1c0.2,0.4,0.3,0.9,0.5,1.3c0.2,0.7,0.4,1.5,0.5,2.3
			c0,0.3,0,0.5,0.1,0.7c0,0.2,0,0.4-0.2,0.6c0,0.2,0,0.3,0,0.5c0.1,0.9-0.1,1.7-0.3,2.5c0,0.1,0,0.1,0,0.2c0.1,0.1,0.1,0.1-0.1,0.1
			c0,0-0.1,0-0.1,0c-0.1,0.1-0.3,0.1-0.4,0c-0.2-0.4-0.1-0.7-0.1-1.1c0-1,0.2-2-0.1-2.9l0,0c-0.5-0.6-0.2-1.4-0.6-2
			c0.1-0.5-0.6-0.6-0.5-1c-0.9-1.1-1.8-2.3-2.5-3.6l0,0c-0.8-0.6-1.5-1.4-2.5-2.2c0,1.2,0.4,2.2,0.2,3.2l0,0c0.2,0.8,0,1.6,0.3,2.4
			c0,0,0,0.1,0,0.1c0.2,0.3,0.1,0.6,0,0.8c0,0.2-0.1,0.4,0.1,0.5c0,0,0.1,0,0.1,0.1c0,1.3,0.5,2.4,0.6,3.7c0,0.1,0,0.1,0,0.2
			c0.1,0.1,0.1,0.1,0,0.2c0,0.1,0,0.1,0,0.2c0.4,0.8,0.3,1.6,0.2,2.4c0,0.1,0,0.1,0,0.2c0.1,0.1,0.3,0.2,0.3,0.3c0,0.1,0,0.2,0,0.3
			c0.1,0.5,0.2,1.1,0.2,1.6c0,0.3,0.1,0.6,0.2,0.8c0,0.2,0,0.3,0,0.5c0.4,0.2,0.9,0,1.3,0.2c0.4,0,0.8,0,1.2,0
			c1,0.3,1.6,1.5,1.2,2.7c-0.1,0.2-0.1,0.4-0.2,0.5c-0.1,0.1-0.1,0.2-0.2,0.3c-0.1,0.7-0.6,1-1.2,0.9c-1-0.1-1.7-0.5-2.1-1.3
			c-0.1-0.1-0.1-0.2-0.2-0.3c-0.2-0.1-0.2-0.4-0.4-0.5c-0.1,0-0.2,0-0.3,0c-0.4,0.4-0.9,0.7-1.4,1c-0.2,0.1-0.3,0.2-0.5,0.4
			c-0.4,0.3-0.6,0.9-1.2,1c-0.2,0-0.4-0.1-0.5,0.2c0,0.1-0.1,0.1-0.2,0.1l0,0c-0.3,0.2-0.6,0.3-1,0.2c-0.1,0-0.1,0-0.2,0
			c-0.2,0.1-0.3,0-0.3-0.2c-0.5-0.1-1-0.3-1.4-0.7c-0.2-0.4-0.5-0.6-0.6-1l0,0c-0.2-0.1,0-0.4-0.2-0.6c0-0.7,0-1.3-0.1-2
			c-0.1-0.2-0.2-0.5-0.1-0.7C97.5,28.6,97.8,28.6,98,28.7z"/>
		<path class="st50" d="M75.5,15c0.2-0.1,0.3-0.1,0.5-0.2c0.8-0.5,1.7-0.7,2.6-0.8c0.1,0,0.1,0,0.2-0.1c0.3-0.3,0.6-0.2,0.9-0.3l0,0
			l0,0c0.2,0,0.3-0.1,0.5-0.2c0.1,0,0.2,0,0.3,0c0.2-0.1,0.5-0.1,0.7-0.3l0,0l0,0c0.2-0.4,0.6-0.4,1-0.4c0.3,0,0.6-0.1,0.9-0.2
			c0.4-0.1,0.7-0.2,1.1-0.1c0.5,0.1,1-0.3,1.5-0.3c0.4-0.4,0.8-0.5,1.4-0.5c0.5,0,1,0,1.4-0.4c0.1,0,0.2-0.1,0.2-0.1
			c0.5,0,0.9-0.2,1.4-0.3c0.1,0,0.2,0,0.2,0c0.1,0,0.3-0.1,0.4-0.1c0.1,0,0.2,0,0.3-0.1c0.2,0,0.4-0.3,0.7-0.1c0.1,0,0.1,0,0.2,0
			c0.6-0.4,1.4-0.3,2-0.6c0.5-0.4,1-0.5,1.6-0.4c0.1,0,0.2,0,0.3,0c0.2-0.1,0.5-0.2,0.7-0.3c0.1,0,0.3-0.1,0.5,0c0.1,0,0.2,0,0.3,0
			c0.4-0.3,0.8-0.4,1.3-0.3c0.2-0.2,0.4-0.1,0.7-0.1c0.1,0,0.1,0,0.1,0.1c0,0,0,0.1,0,0.1c-0.4,0.8-1.1,1.2-2,1.3
			c-0.9,0.1-1.7,0.4-2.5,0.6c-0.9,0.2-1.9,0.4-2.8,0.7c-1.8,0.6-3.8,1-5.6,1.6c-0.8,0.3-1.8,0.3-2.6,0.6c-1.5,0.5-3,0.8-4.4,1.2
			c-0.7,0.2-1.5,0.5-2.3,0.7c-0.9,0.3-1.8,0.6-2.7,0.9c-1,0.4-2.1,0.7-3.1,1.2c-0.3-0.4,0.3-0.3,0.3-0.5c0.3-0.5,1-0.7,1.2-1.2
			C73.8,15.3,74.6,15.2,75.5,15z"/>
		<path class="st50" d="M60.9,7c1.4,1,2.6,2.3,3.7,3.7c0.9,1.2,1.7,2.5,2,4c0.2,1.1,0.7,2.3,0.4,3.4c-0.3,0.9-0.1,1.8-0.3,2.6
			c-0.4,0-0.3-0.3-0.3-0.4c0-0.8,0-1.5,0-2.3c0-2-0.8-3.6-1.8-5.2c-0.7-1.1-1.7-2-2.5-3c0,0,0-0.1-0.1-0.1c-0.4-0.1-0.7-0.7-1-0.5
			c-0.4,0.2,0,0.6,0.1,1c0.2,1.3,0.3,2.7,0.7,4c0.4,1.4,0.4,2.8,0.7,4.1c0.3,1.2,0.4,2.5,0.3,3.7c-0.1,0.7,0,1.4,0,2.1
			c-0.3,0.1-0.4,0-0.4-0.1c0.1-1-0.1-2-0.3-3c-0.3-1.5-0.3-3.1-0.8-4.7c-0.1-0.5-0.2-1-0.2-1.5c0-1.3-0.6-2.4-0.7-3.6c0-1-0.6-2,0-3
			c0-0.1,0-0.2,0-0.3c0,0,0,0,0,0C60.4,7.6,60.4,7.1,60.9,7C60.9,7,61,7,60.9,7z"/>
		<path class="st50" d="M78,29.9c-0.5-0.5-1-1-0.9-1.9c0.1-0.5-0.2-0.3-0.5-0.1c-0.7,0.7-1.3,1.3-2,2c-0.8,0.8-1.8,1.3-3,1.1
			c-1.3-0.2-2.4-0.8-3.1-1.9c-0.5-0.8-0.8-0.9-1.5-0.3c-0.8,0.7-1.6,1.5-2.4,2.3c-0.3-0.6,0.2-1.1,0.4-1.4c0.8-1.1,1.7-2.1,3-2.8
			c0.3-0.2,0.5-0.2,0.7,0.2c1,1.8,2.9,2.7,4.8,2.1c1.3-0.4,2.1-1.4,3-2.3c0.3-0.2,0.5-0.4,0.8-0.7c0.2,0.1,0.1,0.3,0.1,0.5
			c0,1.3,1.2,2,2.4,1.4c0.3-0.2,0.8-0.2,1-0.5c0.5,0,0.2,0.3,0.2,0.5c-0.4,1-1.3,1.6-2.2,2c-0.4,0.1-0.5-0.4-0.8-0.3
			C78.1,29.9,78.1,29.9,78,29.9z"/>
		<path class="st50" d="M14,30.4c0-0.2-0.1-0.4,0-0.5c0.9-1.5,1.8-3,3.3-4c1-0.6,1.4-0.4,1.9,0.6c1.1,2.2,2.4,2.3,4.5,2.1
			c0.4,0,0.8-0.3,1.1-0.6c0.3-0.3,0.6-0.6,0.8-0.8c0.8-0.8,0.8-0.8,1.2,0.2c0.5,1,1.5,1.3,2.4,0.8c0.2-0.1,0.4-0.2,0.6-0.3
			c0.2,0,0.2,0,0.2,0.2c-0.4,0.7-0.6,1.5-1.5,1.9c-0.9,0.4-2-0.1-2.2-1.2c0-0.2,0-0.6-0.3-0.7c-0.2-0.1-0.5-0.1-0.5,0.1
			c-0.1,0.5-0.6,0.6-0.8,0.9c-1.6,2.1-3.2,1.6-4.9,0.5c-0.5-0.4-1-1.1-1.3-1.8c-0.2-0.6-1-0.7-1.6-0.4c-1.3,0.7-1.9,1.9-2.7,3
			C14.2,30.5,14.1,30.5,14,30.4z"/>
		<path class="st51" d="M30.3,33.1c-0.1-0.5-0.1-1.1,0-1.6c0.3,0.1,0.5,0.1,0.6,0.4c0.5,1.5,2.5,2.4,4.1,1.9
			c1.7-0.5,3.3-1.2,4.7-2.2c0.8-0.5,1.6-1.2,2.5-1.8c0.2-0.1,0.3-0.3,0.5-0.3c0.2-0.1,0.4-0.4,0.7-0.2c0.3,0.3-0.1,0.4-0.2,0.6
			c-0.2,0.5-0.6,0.9-0.8,1.3c-0.9,0.8-1.8,1.6-2.9,2.1c-0.2,0.2-0.5,0.3-0.7,0.5c-0.7,0.8-1.6,1-2.5,1.4l0,0c-1,0.2-1.9,1-3,0.6
			c-0.1,0-0.2,0-0.3,0c-0.5-0.1-0.9-0.2-1.2-0.6c-0.1-0.1-0.1-0.1-0.2-0.2C30.8,34.4,30.1,34,30.3,33.1z"/>
		<path class="st52" d="M58,8.9c-0.4,1.2-1.5,1.5-2.5,1.7c-1.1,0.2-2.2,0.7-3.4,0.9c-1.2,0.2-2.3,0.7-3.5,1.1
			c-0.1,0-0.2,0.1-0.3,0.2c-0.1,0-0.1,0-0.2,0c-0.5,0.3-1.1,0.3-1.5,0.6c-1.4,0.4-2.7,1-4,1.5c-0.9,0.3-1.7,0.7-2.6,0.9l0,0
			c-0.4,0.2-0.7,0.3-0.7-0.3c0-0.1,0-0.1,0-0.2c0-0.4,0.4-0.3,0.7-0.5c0.1-0.1,0.1-0.1,0.2-0.2c0.3-0.5,0.8-0.4,1.2-0.6l0,0
			c0.4-0.4,1-0.2,1.4-0.5c0.2-0.1,0.5,0.1,0.6-0.2c0.6-0.5,1.2-0.8,2-0.7c0.5-0.4,1.3-0.3,1.9-0.7c0.4-0.6,1.3-0.4,1.8-0.8
			c0.1-0.1,0.2-0.1,0.3-0.1c0.3,0,0.6-0.2,0.9-0.3c0.5-0.2,1.1-0.1,1.6-0.5c0.2-0.1,0.5-0.1,0.7-0.2c0.1,0,0.2,0,0.2-0.1
			c0.7-0.1,1.3-0.5,2.1-0.4c0.2,0,0.4,0,0.7-0.1c0.2-0.4,0.5-0.3,0.8-0.2c0.2,0,0.2-0.2,0.2-0.3c0-0.1,0.1-0.1,0.2-0.2
			C57.3,8.9,57.6,8.7,58,8.9z"/>
		<path class="st50" d="M78.7,31.5c0.2,0,0.4-0.2,0.5,0.1c0.1,1.1,0.9,1.1,1.7,1.2c1.8,0.2,3.2-0.8,4.6-1.7c1.7-1.1,3.3-2.4,5-3.6
			c0.1-0.1,0.2-0.2,0.4-0.1c0.2,0.2,0,0.3-0.1,0.4c-0.3,1.5-1.9,1.9-2.7,2.9c-0.4,0.6-1.1,0.9-1.7,1.3c-0.5,0.8-1.2,1.2-2.1,1.5
			c-0.3,0-0.4,0.3-0.6,0.4c-0.6,0.5-1.3,0.7-2,0.7c-0.5,0-1,0-1.5,0c-0.4-0.1-0.9,0.2-1-0.4c0-0.2,0-0.3-0.1-0.5
			c-0.2-0.1-0.3-0.2-0.3-0.4C78.7,32.7,78.7,32.1,78.7,31.5z"/>
		<path class="st50" d="M32.6,6.9c0.1-0.4,0.3-0.5,0.6-0.2c0.1,0.2,0.2,0.5,0.3,0.8c0.2,0.1,0.2,0.4,0.3,0.6
			c0.7,0.6,0.8,1.4,1.2,2.2c0,0.1,0,0.2,0,0.3c-0.9,0.4-0.6,1.2-0.5,1.9c0.3,1.3,0.2,2.6,0.5,3.9c-0.2,0.9,0.4,1.8,0.3,2.7
			c0.3,0.2,0.3,0.4,0.3,0.7c-0.1,0.4,0,0.7,0.2,1c0,0.2,0.1,0.3,0.1,0.5c0.3,0.8,0.3,1.7,0.3,2.5c-0.1,0.5,0.4,0.9,0.2,1.5
			c-0.1,0.2,0,0.5-0.4,0.5c-0.4,0-0.3-0.3-0.3-0.5c-0.2-1.3-0.5-2.6-0.7-3.9c-0.2-1.4-0.5-2.8-0.7-4.2c-0.3-1.3-0.4-2.6-0.8-3.8
			c-0.3-0.9-0.4-1.9-0.6-2.8c-0.1-0.7-0.3-1.5-0.4-2.2C32.3,7.9,32.1,7.4,32.6,6.9z"/>
		<path class="st53" d="M98,28.7c-0.2,0-0.4,0-0.5,0.2c-0.3,0.2-0.6,0.3-0.9,0.5c-0.2,0.3-0.4,0.7-0.7,1c0,0.2-0.2,0.3-0.3,0.3l0,0
			c-0.3,0.6-0.7,1.1-1.4,1.4c-0.1,0.1-0.2,0.2-0.3,0.4c-0.3,0.5-0.8,0.6-1.3,1c-0.4,0-0.6,0.2-0.8,0.5c-0.4,0.4-0.8,0.7-1.3,0.7
			c-0.1,0.1-0.1,0.1-0.2,0.2c-0.3,0.1-0.6,0.1-0.9,0.3l0,0c-0.4,0.5-1,0.4-1.6,0.4c-0.1,0-0.2,0-0.2-0.1c-0.2-0.1-0.3-0.2-0.4-0.3
			c-0.7-0.8-0.5-1.8-0.5-2.7c0.1,0,0.4,0,0.4,0.1c0.1,0.5,0.4,0.9,0.8,1c0.7,0.1,1.5,0.1,2.2-0.2c1.9-0.9,3.7-2,5.2-3.5
			c0.5-0.4,1-0.8,1.5-1.2c0.4-0.5,0.7-1.1,0.3-1.8c-0.1-0.3-0.3-1,0.5-0.8C98.1,26.9,97.8,27.8,98,28.7z"/>
		<path class="st54" d="M30.1,28.1C30,28,30,27.9,29.9,27.9c0.3-0.5,0.6-1,0.9-1.5c0.2-0.3,0.5-0.7,0.7,0.1c0.2,0.9,1,1.3,1.7,1.4
			c0.5,0.1,1.1-0.2,1.6-0.4c0.4-0.1,0.7-0.4,1-0.5c-0.2,2.1-2.5,3.2-4.2,2.1c-0.4-0.3-0.5-0.5-0.5-1c0-0.2,0.2-0.6-0.2-0.7
			c-0.3,0-0.6,0.2-0.6,0.5C30.4,28,30.3,28,30.1,28.1z"/>
		<path class="st55" d="M22.5,11.8c0.1,0,0.2,0,0.2-0.1c0.6-0.4,1.2-0.6,1.9-0.7c0.4,0.2,0.6-0.3,1-0.2c0.3-0.4,0.7-0.5,1.2-0.5l0,0
			c0.3-0.2,0.7-0.1,1-0.4c0.6-0.2,1.2-0.4,1.9-0.5c0.2-0.1,0.3-0.2,0.5-0.3c0.2-0.1,0.4-0.1,0.5,0c0.2,0.2,0.1,0.3,0,0.5
			c-0.8,0.6-1.9,0.6-2.8,1c-2.6,1.1-5.5,1.6-8,2.9c-0.3,0.1-0.6,0-0.9,0.3c-0.2,0.1-0.4,0.1-0.6-0.1c0.3-0.8,1-1.1,1.9-1.1
			c0.3-0.2,0.7-0.5,1.1-0.5c0.3,0,0.4-0.2,0.6-0.4C22.1,11.7,22.3,11.7,22.5,11.8z"/>
		<path class="st56" d="M7.7,23c0-0.2,0-0.3,0-0.5c-0.2-0.3,0-0.6,0.2-0.8c0.2-0.3-0.2-0.6,0-0.8c0.1-0.1,0.2-0.3,0.4-0.2
			c0.2,0.1,0.2,0.2,0.1,0.4c0,0.8-0.3,1.7,0.3,2.4c0.3,0.2,0.5,0.4,0.7,0.7c0,0,0.1,0,0.2,0c0.4,0.2,0.7,0.3,1.1,0
			c0.2-0.1,0.4-0.3,0.6-0.3c0.7,0.4-0.1,0.5-0.1,0.8c0,0.6-0.5,1.2-0.9,1.3c-0.9,0.1-0.7,0.6-0.6,1.1c0.2,0.4,0.2,0.8-0.5,0.7
			c0-0.1,0-0.1-0.1-0.1c-0.2-0.8-0.1-1.7-0.8-2.4c-0.1-0.3-0.2-0.5-0.3-0.8C7.6,23.8,7.4,23.4,7.7,23z"/>
		<path class="st57" d="M14,30.4c0.1,0,0.2,0,0.3,0c-0.1,0.2-0.2,0.3-0.1,0.5c-0.1,1.1-0.8,1.9-1.3,2.8c-0.3,0.4-0.7,0.8-1.3,0.3
			c-0.2-0.1-0.3-0.1-0.5-0.2c-0.3-0.1-0.6-0.3-0.7-0.7c0-0.2-0.4-0.2-0.4-0.5c-0.5-0.8-0.8-1.7-0.8-2.7c0-0.2,0-0.5,0-0.7
			c0-0.4,0.1-0.5,0.5-0.3c-0.1,0.8,0.3,1.6,0.6,2.3c0.2,0.5,0.6,0.9,1.3,1c0.9,0.1,1.4-0.4,1.8-1C13.6,30.9,13.7,30.6,14,30.4z"/>
		<path class="st54" d="M18.4,33.5c0.2-0.6,0.5-0.7,1.1-0.4c1,0.6,1.1,0.6,1.9-0.4c0.2-0.2,0.3-0.5,0.6-0.1c0.2,0.2,0.6,0.4,0.9,0.3
			c0.1,0,0.1,0.1,0.1,0.2c0.1,0.2,0.3,0.3,0.2,0.5c0.1,0.6-0.4,0.9-0.8,1l0,0c-0.5,0.2-0.8,0-1.2-0.3c-0.1,0-0.1,0-0.2,0
			c-0.6-0.1-0.7,0.7-1.2,0.8c-0.3-0.1-0.6,0.1-0.8-0.1c-0.4,0.1-0.6-0.4-1-0.5c-0.3-0.1-0.1-0.3-0.1-0.5
			C17.9,33.7,18.2,33.6,18.4,33.5z"/>
		<path class="st58" d="M64.5,31.6c0,1-0.6,1.8-1.1,2.7c-1.2,0.8-2,0.7-2.7-0.6c-0.1-0.2-0.4-0.4-0.4-0.7l0,0
			c-0.4-0.3-0.3-0.8-0.5-1.2c0-0.3,0-0.6,0-0.8c-0.1-0.2,0-0.2,0.1-0.2c0.1,0,0.1,0,0.2,0.1c0.3,0.6,0.5,1.2,1,1.6
			c0.8,0.8,1.7,0.8,2.5,0C63.9,32.1,64.1,31.7,64.5,31.6z"/>
		<path class="st54" d="M32,20.3c0,0.6-1,1.2-1.5,0.9c-1.1-0.6-1.1-0.6-2,0.4c-0.4,0.5-0.8,0-1-0.2c-0.3-0.2-0.9-0.3-0.6-1
			c0.3-0.7,0.7-0.9,1.4-0.5c0.2,0.1,0.4,0.2,0.5,0.3c0.3,0.1,0.7,0.4,1-0.3c0.2-0.5,0.6-1,1.2-0.2c0.1,0.2,0.4,0.2,0.7,0.3
			C31.9,20,32,20.1,32,20.3z"/>
		<path class="st59" d="M38.4,9.8c0-1.1,0.3-1.5,1.3-1.5c0.2,0.1,0.5,0.1,0.7,0.4c0,0,0,0.1,0,0.1c0.5,0.1,0.6,0.5,0.8,0.9
			c0.2,0.4,0.4,0.8,0.9,1.1c0.4,0.2,0.3,0.7,0.2,1c-0.2,0.3-0.3,0.4-0.7,0.4c0-0.1,0-0.3-0.2-0.3c-0.4-0.1-0.2-0.4-0.3-0.7
			c0-0.1,0-0.1,0-0.2c-0.5-0.5-0.9-1.1-1.8-0.7C38.9,10.3,38.5,10.2,38.4,9.8z"/>
		<path class="st60" d="M13.1,10.6c0-0.4,0-0.7,0-1.1c0.4-0.8,0.4-0.8,1-0.6c0.2,0.1,0.4,0.3,0.6,0.4c0.2,0.1,0.2,0.3,0.3,0.5
			c0,0,0.1,0.1,0.1,0.1c0.3,0.2,0.3,0.6,0.4,0.9l0,0c0.2,0.4,0.5,0.7,0.4,1.2c0,0.2-0.1,0.5-0.4,0.5c-0.3,0-0.3-0.3-0.3-0.5
			c0-0.1,0-0.2-0.1-0.2c-0.3-0.3-0.3-0.9-0.9-0.8C13.8,11.2,13.5,10.8,13.1,10.6z"/>
		<path class="st57" d="M17.5,18.7c0.3-0.1,0.3-0.5,0.5-0.7c0-0.2,0.1-0.3,0.3-0.3c0.3,0.2,0.5,0.4,0.8,0.6c0.6,0.3,0.7,0.7,0.4,1.3
			c-0.4,0.6-0.8,0.7-1.3,0.2c-0.2-0.2-0.5-0.3-0.8-0.4C17.1,19.1,17.4,18.9,17.5,18.7z"/>
		<path class="st57" d="M15.1,18.6c0.1-0.2,0.2-0.3,0.2-0.5c0.6-0.2,0.9,0.3,1.2,0.6c0,0.2,0.2,0.2,0.3,0.2c0.7,0.3,0.1,0.7,0,1
			c-0.2,0.3-0.4,0.6-0.9,0.5c-0.6,0.1-1-0.3-1.2-0.5C14.2,19.4,14.9,19,15.1,18.6z"/>
		<path class="st50" d="M97.9,26c-0.6,0.2-0.4,0.6-0.2,0.9c0.3,0.6,0,1.6-0.6,1.7c-0.2-1.2-0.6-2.3-1.1-3.4c-0.7-1.7-1.6-3.3-2.3-5
			c-0.2-0.5,0.2-1,0.4-1.5c0.1-0.2,0.3-0.1,0.3,0.1c0.7,1.3,1.6,2.5,2.2,3.8C97,23.7,97.5,24.8,97.9,26z"/>
		<path class="st54" d="M88.7,20.1c0.3,0.3,0.5,0.6,0.8,0.9c0.2,0.3,0.5,0.4,0.2,0.9c-0.3,0.6,0.4,1.2,0.8,1.7
			c0.8,1.1,0.5,2.3,0.4,3.5c-0.6-2-2-3.5-2.8-5.4C88,21.2,88,21,88.7,20.1z"/>
		<path class="st54" d="M81.2,28.2c-0.1-0.1,0-0.4-0.2-0.5c0.4-0.3,0.4-1,1.1-1.2c0.2,0,0.3,0.1,0.4,0.2c0.7,0.7,1.6,0.7,2.5,0.7
			c0.3,0,0.7-0.4,0.8,0.2c0.1,0.5-0.1,1-0.5,1.2c-1,0.5-2.7,0.4-3.1-0.8c-0.1-0.2-0.2-0.3-0.4-0.3C81.3,27.6,81.5,28.2,81.2,28.2z"
			/>
		<path class="st61" d="M70.9,13.6c0-1.2-0.7-2.1-1.5-3c-0.1-0.2-0.3-0.3-0.6-0.1c-0.5,0.4-0.9-0.1-1.1-0.4c-0.2-0.4,0.1-0.7,0.3-1
			c0.4-0.4,0.8-0.3,1.1,0c0.6,0.5,1.1,1.1,1.4,1.8c0.5,0.5,0.6,1.2,1,1.7c0,0.1,0,0.1,0,0.1c0.2,0.3-0.1,0.5-0.2,0.7l0,0
			C71.3,13.7,71.2,13.9,70.9,13.6z"/>
		<path class="st60" d="M90.9,16.1c-0.5-0.6-1.2-0.6-1.8-0.6c0.7-1.3,0.9-1.3,2-0.6c0.6,0.4,0.4,0.9,0.3,1.3
			c-0.2,0.9-1.3,1.5-2.2,1.3c-0.5-0.1-0.8-0.8-0.6-1.3c0.2-0.4,0.3-0.1,0.5,0C89.7,16.6,90.3,16.5,90.9,16.1z"/>
		<path class="st57" d="M78.1,22.7c-0.3,0.2-0.2,0.5-0.3,0.7c0,0-0.1,0.1-0.2,0.1c-0.1,0-0.2-0.2-0.2-0.3c-0.1-0.8-0.4-1.6-1.1-2.2
			c-0.2-0.2-0.4-0.6-0.7,0c-0.1,0.3-0.8-0.1-1.1-0.3c-0.3-0.1-0.4-0.3-0.1-0.6c0.3-0.3,0.2-1.2,1-0.9c0.5,0.2,0.8,0.5,1.2,0.9
			c0.6,0.7,0.5,1.9,1.5,2.4C78.1,22.6,78.1,22.7,78.1,22.7z"/>
		<path class="st62" d="M100.9,12.9c-0.1,0.6-0.5,0.9-0.9,1c-1.8,0.5-3.6,1-5.3,1.6c-0.1,0.1-0.3,0.3-0.4,0c-0.1-0.2,0-0.4,0.2-0.5
			c1.1-0.5,2.3-1,3.5-1.3C98.9,13.5,99.8,13.2,100.9,12.9z"/>
		<path class="st63" d="M52.1,18.2c0,0.2-0.2,0.3-0.4,0.4c-0.1,0.1-0.2,0.1-0.3,0c-0.2,0-0.3,0-0.5,0c-0.3-0.1-0.5-0.2-0.6-0.5
			c-0.1-0.2-0.2-0.3-0.2-0.5c0.2-0.5-0.2-0.9-0.2-1.3c0-0.3-0.1-0.6,0.2-1c0.2,0.6,0.5,1.1,0.5,1.6c0,0.4,0.2,0.7,0.6,0.7
			c0.2,0,0.3,0.1,0.5-0.1c0.2-0.2,0.2-0.5,0.1-0.5c-0.5-0.3-0.2-0.9-0.5-1.2c-0.1-0.1,0-0.3,0.1-0.4c0.2-0.1,0.3,0.1,0.4,0.2
			c0.4,0.5,0.5,1.1,0.6,1.8C52.7,17.8,52.2,18,52.1,18.2z"/>
		<path class="st64" d="M66,22.7c0.1,0,1.3,0.8,1.3,0.9c0,0.3-0.7,1.3-1,1.2c-0.5-0.1-1-0.4-1.4-0.8C64.9,23.9,65.8,22.7,66,22.7z"
			/>
		<path class="st57" d="M67.9,23.5c0.4-0.3,0.3-1.1,1-1c0.4,0,1.4,0.8,1.3,1c-0.3,0.4-0.6,0.8-1.1,1C68.9,24.5,67.9,23.7,67.9,23.5z
			"/>
		<path class="st65" d="M74.3,9.8c-0.6-0.2-1-0.8-1.7-0.5c-0.2,0.1-0.1-0.3-0.1-0.5c0.1-0.1,0.2-0.2,0.3-0.4c0-0.4,0.2-0.6,0.6-0.3
			c0.1,0.2,0.3,0.2,0.5,0.2c0.3,0.2,0.9,0.4,0.7,1C74.7,9.5,74.4,9.6,74.3,9.8z"/>
		<path class="st66" d="M81.1,19.4c-0.1,0.1-0.2,0.3-0.3,0.4c-0.2,0.2-0.2,0-0.4-0.1c-0.4-0.2-0.8-0.9-1.4-0.4
			c-0.1,0.1-0.3-0.1-0.2-0.2c0.2-0.4,0.4-0.7,0.8-0.9c0.4-0.2,0.4-0.1,0.6,0.1C80.4,18.7,80.8,18.9,81.1,19.4z"/>
		<path class="st67" d="M57,16.8c-0.3,0.3-0.3,0.8-1,0.6c-0.4-0.2-0.6-0.6-0.9-0.9c-0.1-0.1-0.1-0.3,0.1-0.5c0.2-0.2,0.4-0.2,0.5,0
			C56.1,16.4,56.8,16.2,57,16.8z"/>
		<path class="st68" d="M50.2,17.5c0.2,0.1,0.3,0.2,0.4,0.4c-0.3,0.2-0.4,0.5-0.7,0.6l0,0c-0.7,0.5-1,0.5-1.3-0.2
			c-0.1-0.1-0.1-0.1-0.2-0.2c0-0.2,0-0.3,0-0.5c0-0.2,0-0.4,0.2-0.4c0.2,0,0.3,0.1,0.3,0.3c0.1,0.3,0.3,0.3,0.5,0.2
			C49.7,17.9,49.9,17.4,50.2,17.5z"/>
		<path class="st69" d="M85.5,24.3c0.6,0.8,0.5,1.7,0.3,2.6C85.3,26.1,84.6,25.3,85.5,24.3z"/>
		<path class="st70" d="M100.9,22.5c-0.6,1-0.8,1.1-1.3,0.7c-0.4-0.4-0.2-0.9-0.2-1.4c0-0.2,0.4-0.1,0.4,0
			C99.7,22.6,100.3,22.6,100.9,22.5z"/>
		<path class="st71" d="M64.8,31.1c0,0.3,0,0.5-0.4,0.5C64.3,31.3,64.3,31,64.8,31.1z"/>
		<radialGradient id="SVGID_1_" cx="40.7739" cy="25.8717" r="0.6118" gradientUnits="userSpaceOnUse">
			<stop  offset="0" style="stop-color:#FFFFFF"/>
			<stop  offset="1" style="stop-color:#000000"/>
		</radialGradient>
		<path class="st72" d="M41.6,26.2c-0.6,0.1-1.1,0.1-1.6-0.2C40.5,25.3,40.8,25.4,41.6,26.2z"/>
		<path class="st73" d="M73.9,33.8c0.8,0.2,0.1,0.5,0,0.7l0,0c-0.5,0.2-1,0.4-1.4-0.2c-0.1,0-0.2,0-0.3,0c-0.3-0.1-0.5,0.1-0.8,0.2
			c-0.3,0-0.7,0.1-0.6-0.5c0.7-0.5,1.4-0.7,2.3-0.2C73.3,33.9,73.7,33.8,73.9,33.8z"/>
		<path class="st74" d="M68.4,35.9c-0.2,0-0.4,0-0.7,0c0.4-0.2,0.9-0.4,1.3-0.6c0.1,0,0.1,0.1,0.2,0.1
			C69.1,35.8,68.8,35.9,68.4,35.9z"/>
		<path class="st75" d="M69.2,35.3c-0.1,0-0.1-0.1-0.2-0.1c0.3-0.1,0.4-0.6,0.8-0.5c0.1,0.1,0.1,0.2,0,0.3c0,0,0,0.1,0,0.1
			C69.7,35.3,69.5,35.4,69.2,35.3z"/>
		<path class="st76" d="M69.9,35c0-0.1,0-0.2,0-0.3c0.2-0.2,0.3-0.4,0.5-0.5c0.1,0,0.3-0.1,0.3,0.1c0.1,0.2-0.1,0.3-0.2,0.4
			C70.3,34.8,70.1,34.9,69.9,35z"/>
		<path class="st77" d="M76.6,32.5c0.1,0.2,0,0.4-0.1,0.5c-0.1-0.2-0.2-0.2-0.4-0.2C76.3,32.7,76.5,32.6,76.6,32.5z"/>
		<path class="st78" d="M42.4,8.4c0-0.2,0-0.3,0-0.5c0.3-0.2,0.4-0.9,1-0.6c0.5,0.3,1,0.7,0.7,1.4C43.6,8.5,43,8.5,42.4,8.4z"/>
		<path class="st79" d="M25.3,32.9c0.3-0.6,0.6-0.5,1.1,0c0.5,0.5,0.7,1.1,1.1,1.6c0.3,0.4,0.7,0.8,0.3,1.4
			c-0.6,0.2-0.4-0.4-0.7-0.6c0.1-0.4-0.3-0.5-0.5-0.8c-0.3-0.1-0.6-0.2-0.6-0.7c-0.1-0.4-0.6-0.3-0.8-0.5
			C25.1,33.1,25.1,33,25.3,32.9z"/>
		<path class="st80" d="M54,34.2c-0.5,0.1-0.9,0.3-1.4,0.4c-0.5,0.1-0.9-0.1-1.2-0.5c-0.5-0.3-0.9,0.4-1.4,0.2c0-0.1,0-0.3,0-0.4
			c0.5-0.4,1.1-0.7,1.7-0.6c0.9,0.1,1.8,0.3,2.7,0c0,0,0,0.1,0.1,0.1c0,0.2,0.1,0.3-0.1,0.4l0,0C54.4,34.1,54.2,34.1,54,34.2z"/>
		<path class="st81" d="M54.5,33.4c-0.2-0.5-0.5-0.9-1-0.4c-0.1,0.1-0.4,0.1-0.5-0.1c-0.1-0.2,0-0.3,0.2-0.4c0.5-0.4,1-0.9,1.8-0.5
			C55.4,32.8,55.3,33.1,54.5,33.4L54.5,33.4z"/>
		<path class="st81" d="M44.5,35.2c-0.3,0.1-0.3,0.3-0.3,0.5c-0.1,0-0.1,0-0.2,0.1c-0.5,0.3-0.6-0.2-0.8-0.5c0,0-0.1-0.1-0.1-0.1
			c0,0-0.1,0-0.1-0.1c-0.1-0.4-0.3-1.1,0.1-1.2c0.5-0.2,0.9,0.4,1.3,0.8C44.6,34.8,44.5,35,44.5,35.2z"/>
		<path class="st82" d="M48.1,35.9c-0.4,0.2-0.8,0.5-1.2,0.7c-0.1,0-0.1,0.1-0.2,0.1c-0.2,0.1-0.4,0.2-0.7,0c-0.1-0.1-0.1-0.2,0-0.3
			c0.5-0.2,1.1-0.5,1.5-0.9C47.8,35.6,48.1,35.5,48.1,35.9z"/>
		<path class="st83" d="M50.1,34.3c-0.1,0-0.2,0.1-0.2,0.2c-0.2,0.1-0.3,0.4-0.6,0.3c-0.2-0.1-0.1-0.3,0-0.4
			c0.2-0.2,0.6-0.1,0.8-0.4C50.1,34.1,50.1,34.2,50.1,34.3z"/>
		<path class="st84" d="M49.1,34.7c0,0.5-0.2,0.8-0.7,0.5C48.6,35,48.7,34.7,49.1,34.7z"/>
		<path class="st85" d="M46.1,36.4c0,0.1,0,0.2,0,0.3c-0.2,0.1-0.2,0.5-0.5,0.4c-0.3-0.1-0.2-0.3-0.1-0.5
			C45.6,36.6,45.9,36.6,46.1,36.4z"/>
		<path class="st86" d="M44.7,37.3c0-0.2,0.1-0.4,0.4-0.3c0.2,0,0.2,0.2,0.2,0.3C45,37.2,44.8,37.5,44.7,37.3z"/>
		<path class="st65" d="M25.9,14.1c0.4-0.1,0.5,0.1,0.4,0.4c0,0.5,0.3,0.7,0.8,0.8c0.2,0,0.5-0.1,0.6,0.2c0,0.1-0.1,0.3-0.2,0.3
			c-0.2,0.2-0.4,0.1-0.7,0C25.9,15.5,25.9,14.8,25.9,14.1L25.9,14.1z"/>
		<path class="st87" d="M24.2,15.1c0.4,0.2,0.8,0.5,1.3,0.4c0.1,0,0.2,0.1,0.2,0.2c0.1,0.2-0.1,0.2-0.2,0.2
			c-0.4,0.2-0.7,0.5-1.1,0.2C24.1,15.9,23.9,15.5,24.2,15.1z"/>
		<path class="st88" d="M27.4,13.4C27.4,13.4,27.4,13.5,27.4,13.4c0.3,0.3,0.4,0.5,0.2,0.8c0,0.1-0.2,0.1-0.2,0.1
			c-0.3-0.2-0.1-0.5-0.1-0.8C27.3,13.5,27.3,13.4,27.4,13.4z"/>
		<path class="st89" d="M25.9,14.1c-0.1-0.1-0.2-0.2-0.2-0.3c-0.1-0.1-0.1-0.3,0-0.4c0.1-0.1,0.2-0.1,0.3,0c0.1,0.1,0.1,0.2,0,0.4
			C26,13.9,25.9,14,25.9,14.1C25.9,14.1,25.9,14.1,25.9,14.1z"/>
		<path class="st90" d="M27.4,13.4c0,0-0.1,0.1-0.1,0.1c-0.2,0-0.3,0-0.3-0.2c0-0.2,0.1-0.3,0.3-0.2C27.4,13.1,27.5,13.2,27.4,13.4z
			"/>
		<path class="st62" d="M41.5,20.1c-0.1,0.1-0.1,0.2-0.2,0.3c-0.2,0.7-0.7,0.8-1.3,0.3l0,0c-0.5-0.4-0.8-0.8-0.5-1.4
			c0.2-0.4,0.4-0.4,0.6-0.1c0,0.1,0,0.1,0,0.2C40.5,19.8,41,19.8,41.5,20.1z"/>
		<path class="st60" d="M13.2,10.7c0-0.4,0-0.7,0-1.1c0.4-0.8,0.4-0.8,1-0.6c0.2,0.1,0.4,0.3,0.6,0.4c0.2,0.1,0.2,0.3,0.3,0.5
			c0,0,0.1,0.1,0.1,0.1c0.3,0.2,0.3,0.6,0.4,0.9l0,0c0.2,0.4,0.5,0.7,0.4,1.2c0,0.2-0.1,0.5-0.4,0.5c-0.3,0-0.3-0.3-0.3-0.5
			c0-0.1,0-0.2-0.1-0.2c-0.3-0.3-0.3-0.9-0.9-0.8C13.9,11.2,13.5,10.9,13.2,10.7z"/>
		<path class="st91" d="M16,13.7c-0.3,0.1-0.5,0-0.5-0.3c0-0.2,0-0.3,0-0.5c0.3-0.2,0.6-0.3,0.8,0c0,0,0,0.1,0,0.1
			C16.2,13.2,16.2,13.5,16,13.7L16,13.7z"/>
		<path class="st92" d="M82.1,8.4c-0.2-0.2-0.4-0.4-0.7-0.6c0.2-0.3,0.1-0.3-0.2-0.3C81,7.3,80.9,7,80.9,6.7c0-0.5,0.4-0.7,0.8-0.5
			c0.3,0.2,0.7,0.4,0.7,0.9c0,0.5,0.3,0.9,0.6,1.3c0.5,0.3,0.1,0.8,0.3,1.2c0,0.2-0.2,0.3-0.4,0.3C82.5,9.5,82.3,8.9,82.1,8.4z"/>
		<path class="st93" d="M83,10.5c0.1-0.2,0.1-0.5-0.1-0.7c0.2,0,0.3-0.1,0.3-0.2c0.1,0.1,0.2,0.2,0.3,0.3c0,0,0,0.1,0,0.1
			c0,0,0.1,0.1,0.1,0.1c0,0,0,0.1,0,0.1c0,0.1,0,0.2,0,0.3c-0.1,0.4-0.3,0.4-0.5,0.2C83,10.6,83,10.6,83,10.5z"/>
		<path class="st84" d="M109.4,25.3c0-0.4,0-0.8,0.4-1c0.1,0,0.2,0,0.3,0c0.1,0.2-0.2,0.4-0.1,0.7c0,0.2,0.2,0.5-0.2,0.5
			C109.6,25.5,109.4,25.5,109.4,25.3z"/>
	</g>
	<g>
		<path class="st94" d="M8.1,48.6c0-0.3,0.1-0.6,0.2-0.9c0.1-0.3,0.3-0.6,0.6-0.8c0.3-0.2,0.6-0.4,1-0.6s0.9-0.3,1.4-0.3v3.4h1.1
			v1.2h-1.7c-0.1-0.1-0.1-0.1-0.1-0.2c0-0.1-0.1-0.2-0.1-0.2c0-0.1,0-0.2-0.1-0.3c0,0.1-0.1,0.3-0.1,0.4c-0.1,0.1-0.2,0.2-0.3,0.2
			c-0.1,0.1-0.3,0.1-0.5,0.1c-0.5,0-0.9-0.2-1.1-0.5C8.2,49.7,8.1,49.3,8.1,48.6z M8.7,44.4c0-0.2,0.1-0.4,0.2-0.6s0.2-0.2,0.4-0.2
			c0.2,0,0.3,0.1,0.4,0.2c0.1,0.2,0.2,0.4,0.2,0.6c0,0.2-0.1,0.4-0.2,0.6c-0.1,0.2-0.2,0.2-0.4,0.2c-0.2,0-0.3-0.1-0.4-0.2
			C8.8,44.8,8.7,44.6,8.7,44.4z M9,48.4v0.4c0,0.2,0,0.4,0.1,0.5c0.1,0.1,0.2,0.2,0.4,0.2h0.9v-2.2c-0.2,0.1-0.4,0.1-0.6,0.2
			c-0.2,0.1-0.3,0.2-0.4,0.3S9.2,48,9.1,48.1C9.1,48.2,9,48.3,9,48.4z M10.2,44.4c0-0.2,0.1-0.4,0.2-0.6c0.1-0.2,0.2-0.2,0.4-0.2
			c0.2,0,0.3,0.1,0.4,0.2c0.1,0.2,0.2,0.4,0.2,0.6c0,0.2-0.1,0.4-0.2,0.6c-0.1,0.2-0.2,0.2-0.4,0.2c-0.2,0-0.3-0.1-0.4-0.2
			C10.3,44.8,10.2,44.6,10.2,44.4z"/>
		<path class="st94" d="M15.8,49.7c0,0.2-0.1,0.4-0.2,0.7c-0.2,0.6-0.4,0.9-0.6,0.9c-0.1,0-0.1,0-0.2-0.1c-0.1-0.1-0.4-0.2-0.6-0.4
			c-0.3-0.2-0.6-0.4-0.9-0.7c-0.1,0.2-0.2,0.4-0.3,0.4c-0.1,0-0.2,0.1-0.4,0.1h-0.5v-1.2h0.6c0.1-0.5,0.3-1,0.5-1.4
			c0.2-0.4,0.3-0.8,0.5-1.1c0.2-0.3,0.3-0.5,0.5-0.7c0.2-0.2,0.3-0.2,0.4-0.2c0.3,0,0.6,0.3,0.8,1c0.1,0.2,0.1,0.5,0.2,0.8
			c0.1,0.3,0.1,0.7,0.2,1.1C15.8,49.3,15.8,49.5,15.8,49.7z M15,49.9c-0.1-0.7-0.1-1.2-0.2-1.6s-0.2-0.6-0.4-0.6
			c0,0-0.1,0.1-0.3,0.3c-0.1,0.1-0.2,0.3-0.2,0.5c-0.1,0.2-0.2,0.4-0.2,0.5c0.2,0.2,0.4,0.4,0.6,0.6C14.6,49.6,14.8,49.8,15,49.9z"
			/>
		<path class="st94" d="M17.9,45.8c0.1,0.6,0.1,1.3,0.2,1.9c0,0.6,0.1,1.2,0.1,1.7h0.8v1.2h-0.8c0,0.1,0,0.3,0,0.5
			c0,0.2-0.1,0.4-0.1,0.5c-0.1,0.2-0.1,0.4-0.2,0.6s-0.2,0.3-0.4,0.5S17,52.9,16.8,53c-0.2,0.1-0.5,0.1-0.8,0.1l-0.2-0.8
			c0.3,0,0.5-0.1,0.7-0.3c0.1-0.1,0.2-0.1,0.2-0.2s0.2-0.2,0.2-0.3s0.1-0.3,0.2-0.5c0-0.2,0.1-0.4,0.1-0.6c0-0.7,0-1.4,0-2.1
			c0-0.7-0.1-1.4-0.2-2.1L17.9,45.8z"/>
		<path class="st94" d="M23.3,50.6h-4.4v-1.2h2.5v-0.3c0-0.2,0-0.4-0.1-0.7s-0.2-0.5-0.3-0.7c-0.1-0.2-0.3-0.5-0.5-0.7
			c-0.2-0.2-0.4-0.4-0.7-0.6l0.1-1.9l2.9-1.4l-0.2,1.5l-1.9,0.8c0.2,0.2,0.4,0.5,0.6,0.7c0.2,0.3,0.4,0.6,0.5,0.9
			c0.2,0.3,0.3,0.7,0.4,1c0.1,0.3,0.2,0.7,0.2,1v0.3h1.1V50.6z"/>
		<path class="st94" d="M26.8,49.4h1.5v-5.9l0.9-0.4v7.5h-2.7c-0.2,0.4-0.3,0.7-0.5,0.7c-0.1,0-0.1,0-0.2-0.1
			c-0.1-0.1-0.4-0.2-0.6-0.4c-0.3-0.2-0.6-0.4-0.9-0.7c-0.1,0.2-0.2,0.4-0.3,0.4c-0.1,0-0.2,0.1-0.4,0.1h-0.5v-1.2h0.6
			c0.1-0.5,0.3-1,0.5-1.4c0.2-0.4,0.3-0.8,0.5-1.1c0.2-0.3,0.3-0.5,0.5-0.7c0.2-0.2,0.3-0.2,0.4-0.2c0.3,0,0.6,0.3,0.8,1
			c0.1,0.2,0.1,0.5,0.2,0.8c0.1,0.3,0.1,0.7,0.2,1.1C26.8,49.2,26.8,49.3,26.8,49.4z M26,49.9c-0.1-0.7-0.1-1.2-0.2-1.6
			s-0.2-0.6-0.4-0.6c0,0-0.1,0.1-0.3,0.3c-0.1,0.1-0.2,0.3-0.2,0.5c-0.1,0.2-0.2,0.4-0.2,0.5c0.2,0.2,0.4,0.4,0.6,0.6
			C25.6,49.6,25.8,49.8,26,49.9z"/>
		<path class="st94" d="M31.1,43.2v7.5h-0.9v-7.1L31.1,43.2z"/>
		<path class="st94" d="M34,48.6c0-0.3,0.1-0.6,0.2-0.9c0.1-0.3,0.3-0.6,0.6-0.8c0.3-0.2,0.6-0.4,1-0.6s0.9-0.3,1.4-0.3v3.4h1.1v1.2
			h-1.7c-0.1-0.1-0.1-0.1-0.1-0.2c0-0.1-0.1-0.2-0.1-0.2c0-0.1,0-0.2-0.1-0.3c0,0.1-0.1,0.3-0.1,0.4c-0.1,0.1-0.2,0.2-0.3,0.2
			c-0.1,0.1-0.3,0.1-0.5,0.1c-0.5,0-0.9-0.2-1.1-0.5C34.1,49.7,34,49.3,34,48.6z M34.7,44.4c0-0.2,0.1-0.4,0.2-0.6s0.2-0.2,0.4-0.2
			c0.2,0,0.3,0.1,0.4,0.2c0.1,0.2,0.2,0.4,0.2,0.6c0,0.2-0.1,0.4-0.2,0.6c-0.1,0.2-0.2,0.2-0.4,0.2c-0.2,0-0.3-0.1-0.4-0.2
			C34.7,44.8,34.7,44.6,34.7,44.4z M34.9,48.4v0.4c0,0.2,0,0.4,0.1,0.5c0.1,0.1,0.2,0.2,0.4,0.2h0.9v-2.2c-0.2,0.1-0.4,0.1-0.6,0.2
			c-0.2,0.1-0.3,0.2-0.4,0.3s-0.2,0.2-0.3,0.3C35,48.2,34.9,48.3,34.9,48.4z M36.1,44.4c0-0.2,0.1-0.4,0.2-0.6
			c0.1-0.2,0.2-0.2,0.4-0.2c0.2,0,0.3,0.1,0.4,0.2c0.1,0.2,0.2,0.4,0.2,0.6c0,0.2-0.1,0.4-0.2,0.6c-0.1,0.2-0.2,0.2-0.4,0.2
			c-0.2,0-0.3-0.1-0.4-0.2C36.2,44.8,36.1,44.6,36.1,44.4z"/>
		<path class="st94" d="M42.6,50.6h-4.4v-1.2h2.5v-0.3c0-0.2,0-0.4-0.1-0.7s-0.2-0.5-0.3-0.7c-0.1-0.2-0.3-0.5-0.5-0.7
			c-0.2-0.2-0.4-0.4-0.7-0.6l0.1-1.9l2.9-1.4l-0.2,1.5l-1.9,0.8c0.2,0.2,0.4,0.5,0.6,0.7c0.2,0.3,0.4,0.6,0.5,0.9
			c0.2,0.3,0.3,0.7,0.4,1c0.1,0.3,0.2,0.7,0.2,1v0.3h1.1V50.6z"/>
		<path class="st94" d="M45.5,51.3c-0.1,0-0.1,0-0.2-0.1c-0.1-0.1-0.4-0.2-0.6-0.4c-0.3-0.2-0.6-0.4-0.9-0.7
			c-0.1,0.2-0.2,0.4-0.3,0.4c-0.1,0-0.2,0.1-0.4,0.1h-0.5v-1.2h0.6c0.1-0.5,0.3-1,0.5-1.4c0.2-0.4,0.3-0.8,0.5-1.1
			c0.2-0.3,0.3-0.5,0.5-0.7c0.2-0.2,0.3-0.2,0.4-0.2c0.3,0,0.6,0.3,0.8,1c0.1,0.2,0.1,0.5,0.2,0.8c0.1,0.3,0.1,0.7,0.2,1.1
			c0,0.2,0,0.3,0,0.4H47v1.2h-1C45.8,51.1,45.6,51.3,45.5,51.3z M45.4,49.9c-0.1-0.7-0.1-1.2-0.2-1.6s-0.2-0.6-0.4-0.6
			c0,0-0.1,0.1-0.3,0.3c-0.1,0.1-0.2,0.3-0.2,0.5c-0.1,0.2-0.2,0.4-0.2,0.5c0.2,0.2,0.4,0.4,0.6,0.6C44.9,49.6,45.2,49.8,45.4,49.9z
			"/>
		<path class="st94" d="M46.8,49.4h1.7v-3.2l0.9-0.4l0,4.8h-2.6V49.4z M47.7,52.4c0-0.2,0.1-0.4,0.2-0.6s0.2-0.2,0.4-0.2
			c0.2,0,0.3,0.1,0.4,0.2s0.2,0.4,0.2,0.6c0,0.2-0.1,0.4-0.2,0.6c-0.1,0.2-0.2,0.2-0.4,0.2c-0.2,0-0.3-0.1-0.4-0.2
			C47.7,52.8,47.7,52.6,47.7,52.4z"/>
		<path class="st94" d="M52.3,48.6c0-0.3,0.1-0.6,0.2-0.9c0.1-0.3,0.3-0.6,0.6-0.8c0.3-0.2,0.6-0.4,1-0.6s0.9-0.3,1.4-0.3v3.4h1.1
			v1.2h-1.7c-0.1-0.1-0.1-0.1-0.1-0.2c0-0.1-0.1-0.2-0.1-0.2c0-0.1,0-0.2-0.1-0.3c0,0.1-0.1,0.3-0.1,0.4c-0.1,0.1-0.2,0.2-0.3,0.2
			c-0.1,0.1-0.3,0.1-0.5,0.1c-0.5,0-0.9-0.2-1.1-0.5C52.4,49.7,52.3,49.3,52.3,48.6z M52.9,44.4c0-0.2,0.1-0.4,0.2-0.6
			s0.2-0.2,0.4-0.2c0.2,0,0.3,0.1,0.4,0.2C54,44,54,44.2,54,44.4c0,0.2-0.1,0.4-0.2,0.6c-0.1,0.2-0.2,0.2-0.4,0.2
			c-0.2,0-0.3-0.1-0.4-0.2C53,44.8,52.9,44.6,52.9,44.4z M53.2,48.4v0.4c0,0.2,0,0.4,0.1,0.5c0.1,0.1,0.2,0.2,0.4,0.2h0.9v-2.2
			c-0.2,0.1-0.4,0.1-0.6,0.2c-0.2,0.1-0.3,0.2-0.4,0.3s-0.2,0.2-0.3,0.3C53.2,48.2,53.2,48.3,53.2,48.4z M54.4,44.4
			c0-0.2,0.1-0.4,0.2-0.6c0.1-0.2,0.2-0.2,0.4-0.2c0.2,0,0.3,0.1,0.4,0.2c0.1,0.2,0.2,0.4,0.2,0.6c0,0.2-0.1,0.4-0.2,0.6
			c-0.1,0.2-0.2,0.2-0.4,0.2c-0.2,0-0.3-0.1-0.4-0.2C54.5,44.8,54.4,44.6,54.4,44.4z"/>
		<path class="st94" d="M56.3,49.4h1.4v-3.2l0.9-0.4v3.6h1.2v1.2h-3.5V49.4z M56.9,52.4c0-0.2,0.1-0.4,0.2-0.6s0.2-0.2,0.4-0.2
			c0.2,0,0.3,0.1,0.4,0.2C58,52,58,52.2,58,52.4c0,0.2-0.1,0.4-0.2,0.6c-0.1,0.2-0.2,0.2-0.4,0.2c-0.2,0-0.3-0.1-0.4-0.2
			S56.9,52.7,56.9,52.4z M58.4,52.4c0-0.2,0.1-0.4,0.2-0.6c0.1-0.2,0.2-0.2,0.4-0.2c0.2,0,0.3,0.1,0.4,0.2c0.1,0.2,0.2,0.4,0.2,0.6
			c0,0.2-0.1,0.4-0.2,0.6c-0.1,0.2-0.2,0.2-0.4,0.2c-0.2,0-0.3-0.1-0.4-0.2C58.4,52.8,58.4,52.7,58.4,52.4z"/>
		<path class="st94" d="M63.3,49.7c0,0.2-0.1,0.4-0.2,0.7c-0.2,0.6-0.4,0.9-0.6,0.9c-0.1,0-0.1,0-0.2-0.1c-0.1-0.1-0.4-0.2-0.6-0.4
			c-0.3-0.2-0.6-0.4-0.9-0.7c-0.1,0.2-0.2,0.4-0.3,0.4c-0.1,0-0.2,0.1-0.4,0.1h-0.5v-1.2h0.6c0.1-0.5,0.3-1,0.5-1.4
			c0.2-0.4,0.3-0.8,0.5-1.1c0.2-0.3,0.3-0.5,0.5-0.7c0.2-0.2,0.3-0.2,0.4-0.2c0.3,0,0.6,0.3,0.8,1c0.1,0.2,0.1,0.5,0.2,0.8
			c0.1,0.3,0.1,0.7,0.2,1.1C63.3,49.3,63.3,49.5,63.3,49.7z M62.5,49.9c-0.1-0.7-0.1-1.2-0.2-1.6s-0.2-0.6-0.4-0.6
			c0,0-0.1,0.1-0.3,0.3c-0.1,0.1-0.2,0.3-0.2,0.5c-0.1,0.2-0.2,0.4-0.2,0.5c0.2,0.2,0.4,0.4,0.6,0.6C62.1,49.6,62.3,49.8,62.5,49.9z
			"/>
		<path class="st94" d="M64.2,43.6l0.9-0.4v6.3H66v1.2h-1.8V43.6z"/>
		<path class="st94" d="M66.5,49.4v-5.9l0.9-0.4l0,4.8c0.4-0.6,0.9-1.1,1.2-1.4c0.4-0.3,0.8-0.5,1.2-0.5c0.3,0,0.5,0.1,0.7,0.3
			c0.2,0.2,0.3,0.5,0.4,0.8c0.1,0.3,0.2,0.7,0.2,1.1c0,0.4,0.1,0.7,0.1,1.1h0.6v1.2h-6.1v-1.2H66.5z M70.2,49.4v-0.6
			c0-0.4-0.1-0.8-0.2-1s-0.4-0.4-0.7-0.4c-0.6,0-1.2,0.7-2,2H70.2z M68.6,44.4c0-0.2,0.1-0.4,0.2-0.6s0.2-0.2,0.4-0.2
			c0.2,0,0.3,0.1,0.4,0.2c0.1,0.2,0.2,0.4,0.2,0.6c0,0.2-0.1,0.4-0.2,0.6c-0.1,0.2-0.2,0.2-0.4,0.2c-0.2,0-0.3-0.1-0.4-0.2
			C68.7,44.8,68.6,44.6,68.6,44.4z"/>
		<path class="st94" d="M71.6,49.4h1.7v-3.2l0.9-0.4l0,4.8h-2.6V49.4z M73.1,44.4c0-0.2,0.1-0.4,0.2-0.6s0.2-0.2,0.4-0.2
			c0.2,0,0.3,0.1,0.4,0.2s0.2,0.4,0.2,0.6c0,0.2-0.1,0.4-0.2,0.6c-0.1,0.2-0.2,0.2-0.4,0.2c-0.2,0-0.3-0.1-0.4-0.2
			C73.2,44.8,73.1,44.6,73.1,44.4z"/>
		<path class="st94" d="M77.2,48.6c0-0.3,0.1-0.6,0.2-0.9c0.1-0.3,0.3-0.6,0.6-0.8c0.3-0.2,0.6-0.4,1-0.6s0.9-0.3,1.4-0.3v3.4h1.1
			v1.2h-1.7c-0.1-0.1-0.1-0.1-0.1-0.2c0-0.1-0.1-0.2-0.1-0.2c0-0.1,0-0.2-0.1-0.3c0,0.1-0.1,0.3-0.1,0.4c-0.1,0.1-0.2,0.2-0.3,0.2
			c-0.1,0.1-0.3,0.1-0.5,0.1c-0.5,0-0.9-0.2-1.1-0.5C77.3,49.7,77.2,49.3,77.2,48.6z M77.8,44.4c0-0.2,0.1-0.4,0.2-0.6
			s0.2-0.2,0.4-0.2c0.2,0,0.3,0.1,0.4,0.2c0.1,0.2,0.2,0.4,0.2,0.6c0,0.2-0.1,0.4-0.2,0.6c-0.1,0.2-0.2,0.2-0.4,0.2
			c-0.2,0-0.3-0.1-0.4-0.2C77.8,44.8,77.8,44.6,77.8,44.4z M78.1,48.4v0.4c0,0.2,0,0.4,0.1,0.5c0.1,0.1,0.2,0.2,0.4,0.2h0.9v-2.2
			c-0.2,0.1-0.4,0.1-0.6,0.2c-0.2,0.1-0.3,0.2-0.4,0.3s-0.2,0.2-0.3,0.3C78.1,48.2,78.1,48.3,78.1,48.4z M79.3,44.4
			c0-0.2,0.1-0.4,0.2-0.6c0.1-0.2,0.2-0.2,0.4-0.2c0.2,0,0.3,0.1,0.4,0.2c0.1,0.2,0.2,0.4,0.2,0.6c0,0.2-0.1,0.4-0.2,0.6
			c-0.1,0.2-0.2,0.2-0.4,0.2c-0.2,0-0.3-0.1-0.4-0.2C79.3,44.8,79.3,44.6,79.3,44.4z"/>
		<path class="st94" d="M81.2,49.4h1.2v-3.2l0.9-0.5v3.7h1v-3.2l0.9-0.5v3.7h1v-3.2l0.9-0.5v4.9h-5.9V49.4z"/>
		<path class="st94" d="M89.3,45.8c0.1,0.8,0.2,1.6,0.2,2.4s0.1,1.5,0.1,2.1c0,0.1,0,0.2,0,0.3s0,0.3-0.1,0.6s-0.1,0.4-0.2,0.7
			c-0.1,0.2-0.2,0.4-0.4,0.6s-0.4,0.4-0.6,0.5c-0.2,0.1-0.5,0.2-0.9,0.2l-0.2-0.8c0.3,0,0.5-0.1,0.7-0.3c0.1-0.1,0.2-0.1,0.2-0.2
			c0.1-0.1,0.2-0.2,0.2-0.3c0.1-0.1,0.1-0.3,0.2-0.5c0-0.2,0.1-0.4,0.1-0.6c0-0.7,0-1.4,0-2.1c0-0.7-0.1-1.4-0.2-2.1L89.3,45.8z"/>
		<path class="st94" d="M90.3,49.3c0.1,0,0.1,0.1,0.2,0.1c0.1,0,0.1,0,0.2,0.1c0.1,0,0.2,0,0.2,0h1.7c0-0.1,0-0.3,0-0.6
			s-0.1-0.5-0.2-0.7s-0.2-0.5-0.4-0.8s-0.4-0.5-0.7-0.7l0.2-1.2c0.3,0.1,0.6,0.4,0.9,0.7c0.1,0.1,0.2,0.3,0.4,0.5s0.2,0.4,0.3,0.7
			c0.1,0.3,0.2,0.6,0.3,0.9c0.1,0.3,0.1,0.7,0.2,1.2h0.8v1.2h-3.5c-0.1,0-0.2,0-0.2,0c-0.1,0-0.1,0-0.2-0.1c-0.1,0-0.1-0.1-0.2-0.1
			L90.3,49.3z"/>
		<path class="st94" d="M97.8,49.7c0,0.2-0.1,0.4-0.2,0.7c-0.2,0.6-0.4,0.9-0.6,0.9c-0.1,0-0.1,0-0.2-0.1c-0.1-0.1-0.4-0.2-0.6-0.4
			c-0.3-0.2-0.6-0.4-0.9-0.7c-0.1,0.2-0.2,0.4-0.3,0.4c-0.1,0-0.2,0.1-0.4,0.1h-0.5v-1.2h0.6c0.1-0.5,0.3-1,0.5-1.4
			c0.2-0.4,0.3-0.8,0.5-1.1c0.2-0.3,0.3-0.5,0.5-0.7c0.2-0.2,0.3-0.2,0.4-0.2c0.3,0,0.6,0.3,0.8,1c0.1,0.2,0.1,0.5,0.2,0.8
			c0.1,0.3,0.1,0.7,0.2,1.1C97.8,49.3,97.8,49.5,97.8,49.7z M96.9,49.9c-0.1-0.7-0.1-1.2-0.2-1.6s-0.2-0.6-0.4-0.6
			c0,0-0.1,0.1-0.3,0.3c-0.1,0.1-0.2,0.3-0.2,0.5c-0.1,0.2-0.2,0.4-0.2,0.5c0.2,0.2,0.4,0.4,0.6,0.6C96.5,49.6,96.7,49.8,96.9,49.9z
			"/>
		<path class="st94" d="M102.3,53.2c-0.3,0-0.6-0.1-0.9-0.2c-0.2-0.1-0.5-0.3-0.6-0.5c-0.2-0.2-0.3-0.5-0.4-0.7
			c-0.1-0.3-0.1-0.5-0.1-0.8c0-0.4,0-0.8,0.1-1.1c0.1-0.3,0.1-0.6,0.2-0.8s0.1-0.4,0.2-0.6c0.1-0.2,0.1-0.3,0.2-0.4h0.6
			c-0.1,0.3-0.2,0.7-0.3,1.1c-0.1,0.4-0.1,0.8-0.1,1.2c0,0.2,0,0.4,0.1,0.6c0,0.2,0.1,0.4,0.2,0.5c0.1,0.2,0.2,0.3,0.4,0.4
			s0.3,0.1,0.5,0.1c0.2,0,0.4,0,0.5-0.1c0.2-0.1,0.3-0.2,0.4-0.3c0.1-0.1,0.2-0.3,0.3-0.5c0.1-0.2,0.1-0.5,0.1-0.8v-6.6l0.9-0.4v6.4
			c0,0.6,0,1.2-0.1,1.6c-0.1,0.5-0.2,0.8-0.4,1.1s-0.4,0.5-0.7,0.6C103,53.1,102.7,53.2,102.3,53.2z"/>
		<path class="st94" d="M108.5,50.3c0,0.1,0,0.2,0,0.3s0,0.3-0.1,0.6c0,0.2-0.1,0.4-0.2,0.7c-0.1,0.2-0.2,0.4-0.4,0.6
			c-0.2,0.2-0.4,0.4-0.6,0.5c-0.2,0.1-0.5,0.2-0.9,0.2l-0.2-0.8c0.2,0,0.4-0.1,0.6-0.2c0.1-0.1,0.2-0.1,0.2-0.2
			c0.1-0.1,0.2-0.2,0.2-0.3c0.1-0.1,0.1-0.3,0.2-0.4c0-0.2,0.1-0.3,0.1-0.6h-0.9c-0.3,0-0.5,0-0.6-0.1c-0.2-0.1-0.3-0.2-0.4-0.3
			c-0.1-0.1-0.2-0.3-0.2-0.6c0-0.2-0.1-0.5-0.1-0.8c0-0.3,0.1-0.6,0.2-0.9c0.1-0.3,0.3-0.6,0.5-0.8c0.2-0.3,0.5-0.5,0.9-0.7
			c0.4-0.2,0.8-0.3,1.3-0.4c0.1,0.8,0.1,1.5,0.2,2.2C108.5,48.9,108.5,49.6,108.5,50.3z M107.6,49.4c0-0.4,0-0.7,0-1.1
			s0-0.7-0.1-1.1c-0.4,0.1-0.7,0.3-0.9,0.5c-0.2,0.2-0.4,0.6-0.4,1c0,0.2,0,0.4,0.1,0.5c0.1,0.1,0.2,0.2,0.4,0.2H107.6z"/>
		<path class="st94" d="M110.6,42.4l-1.8,0.8v-0.7l0.5-0.2c-0.1,0-0.1,0-0.1-0.1c0-0.1-0.1-0.1-0.1-0.2c0-0.1-0.1-0.2-0.1-0.2
			s0-0.2,0-0.2c0-0.2,0-0.4,0.1-0.6s0.2-0.3,0.3-0.5c0.1-0.1,0.2-0.2,0.3-0.3c0.1-0.1,0.2-0.1,0.3-0.1c0.1,0,0.2,0,0.3,0.1
			c0.1,0.1,0.2,0.2,0.3,0.4c0,0.1-0.1,0.1-0.2,0.2c-0.1,0.1-0.2,0.2-0.3,0.3c-0.1-0.1-0.2-0.2-0.3-0.2c-0.1,0-0.2,0.1-0.3,0.2
			s-0.1,0.2-0.1,0.3c0,0.1,0,0.2,0.1,0.3c0,0.1,0.1,0.1,0.1,0.2c0.1,0.1,0.1,0.1,0.2,0.1s0.1,0.1,0.2,0.1l0.6-0.2V42.4z M110.2,43.2
			v7.5h-0.9v-7.1L110.2,43.2z"/>
	</g>
</g>
<line class="st95" x1="115.9" y1="6.2" x2="115.9" y2="54"/>
</svg>
